<?xml version="1.0" encoding="utf-8"?>
<!-- Generator: Adobe Illustrator 16.0.0, SVG Export Plug-In . SVG Version: 6.00 Build 0)  -->
<!DOCTYPE svg PUBLIC "-//W3C//DTD SVG 1.1//EN" "http://www.w3.org/Graphics/SVG/1.1/DTD/svg11.dtd">
<svg version="1.1" id="Layer_1" xmlns="http://www.w3.org/2000/svg" xmlns:xlink="http://www.w3.org/1999/xlink" x="0px" y="0px"
	 width="847.458px" height="383.98px" viewBox="0 0 847.458 383.98" enable-background="new 0 0 847.458 383.98"
	 xml:space="preserve">
<g>
	<path fill="#262626" d="M178.409,150.01l-1.104,3.128c-11.776,6.135-17.848,9.2-18.216,9.2c-0.247,0-0.644-0.092-1.196-0.276
		c-0.552-0.184-0.952-0.276-1.196-0.276c-0.368,0-0.736,0.092-1.104,0.276c-0.368,0.184-0.676,0.276-0.92,0.276
		c-0.859,0-2.271-1.288-4.232-3.864c-7.852-10.304-12.207-15.456-13.064-15.456c-0.124,0-4.416,1.78-12.88,5.336
		c-5.031,2.208-8.648,6.503-10.856,12.88c-1.104,3.312-2.208,9.079-3.312,17.296c-0.124,2.7-0.615,6.687-1.472,11.96
		c-0.124,0.736-0.644,1.317-1.564,1.748c-0.92,0.428-1.748,0.828-2.484,1.196l-8.464,4.6c-2.823,1.84-5.583,3.68-8.28,5.52
		c-5.52,3.557-8.711,5.336-9.568,5.336c-0.86,0-1.472-0.492-1.84-1.472c-0.368-0.983-1.288-1.472-2.76-1.472
		c-1.472-2.208-3.743-5.459-6.808-9.752c-0.859-1.104-3.007-3.496-6.44-7.176c-2.7-2.944-4.048-4.6-4.048-4.968
		c0-0.245,0.244-0.705,0.736-1.38c0.489-0.673,0.796-1.196,0.92-1.564c0.368-1.472,0.92-3.801,1.656-6.992
		c0.612-1.104,1.348-2.82,2.208-5.152c0.857-4.169,2.452-10.425,4.784-18.768c0.612-1.349,1.472-3.433,2.576-6.256
		c2.329-8.464,5.888-21.16,10.672-38.088c-0.124-0.856-0.063-2.145,0.184-3.864c0.612-1.349,1.349-3.249,2.208-5.704
		c0.857-4.537,2.084-11.345,3.68-20.424c1.225-4.169,2.513-10.12,3.864-17.848c0.368-0.857,0.92-2.145,1.656-3.864
		c-0.124-0.489-0.184-1.225-0.184-2.208c0.245-0.613,0.736-1.349,1.472-2.208c2.82-1.593,5.028-2.392,6.624-2.392h0.552
		c0.121,0.124,0.305,0.184,0.552,0.184c0.368,0,3.064-0.92,8.096-2.76c5.028-1.84,7.665-2.76,7.912-2.76
		c1.716,0,4.108,2.024,7.176,6.072c1.225,1.104,2.88,2.76,4.968,4.968c1.104,1.228,2.636,2.944,4.6,5.152c0,0.247,0,0.492,0,0.736
		c0,0.492,0.184,0.736,0.552,0.736c0.245,0,0.429-0.06,0.552-0.184c0.121-0.121,0.368-0.184,0.736-0.184
		c1.104,0,2.116,0.952,3.036,2.852c0.92,1.903,1.44,3.343,1.564,4.324c0.244,2.087,0.673,3.804,1.288,5.152
		c1.225,2.455,2.944,6.011,5.152,10.672c2.697,5.888,4.905,10.244,6.624,13.064c2.208,3.804,4.477,8.464,6.808,13.984
		c1.104,1.964,2.697,5.031,4.784,9.2c0.857,2.332,2.208,5.828,4.048,10.488c1.716,3.312,3.617,7.792,5.704,13.432
		c0.121,0.983,0.828,2.332,2.116,4.048C177.765,148.233,178.409,149.398,178.409,150.01z M65.065,176.506
		c-0.615-1.104-1.167-1.656-1.656-1.656v1.656H65.065z M73.897,168.042v-1.288c-0.736-0.98-1.779-2.084-3.128-3.312
		C71.137,164.793,72.178,166.326,73.897,168.042z M73.161,158.106c0-0.613-0.184-1.041-0.552-1.288
		c-0.124,0-0.184,0.184-0.184,0.552C72.546,157.738,72.793,157.985,73.161,158.106z M76.657,138.418
		c0-0.245-0.063-0.613-0.184-1.104c-0.124-0.489-0.184-0.796-0.184-0.92c-0.368,0-0.92,0.368-1.656,1.104l0.736,0.92H76.657z
		 M173.809,150.01c0-1.593-1.656-6.132-4.968-13.616c-1.104-2.208-2.7-5.336-4.784-9.384c-0.983-2.82-2.455-6.624-4.416-11.408
		c-2.332-4.537-5.644-10.977-9.936-19.32c-1.104-2.452-2.516-5.704-4.232-9.752c-1.352-2.944-5.152-10.304-11.408-22.08
		c-1.84,0.124-5.215,1.412-10.12,3.864c-1.472,0.736-3.007,1.288-4.6,1.656c-1.964,0.615-3.128,1.288-3.496,2.024
		c-1.228,2.576-2.639,6.012-4.232,10.304c-1.596,7.975-4.111,19.935-7.544,35.88c-0.615,1.472-1.412,3.436-2.392,5.888
		c-0.368,2.944-1.104,6.992-2.208,12.144c-1.352,4.416-2.516,9.323-3.496,14.72c-0.492,1.228-1.167,2.884-2.024,4.968
		c-0.124,0.491-1.167,4.479-3.128,11.96c-0.248,1.963-0.799,4.907-1.656,8.832c0,0.368-0.276,1.135-0.828,2.3
		c-0.552,1.167-0.828,1.932-0.828,2.3c0,1.352,0.736,2.76,2.208,4.232c-1.719,0.736-2.456,1.104-2.208,1.104l-0.736-0.552h-1.288
		c0.244,0.983,0.736,2.392,1.472,4.232c-0.492,0.489-1.167,0.98-2.024,1.472c-2.208,5.764-3.312,8.953-3.312,9.568
		c0,0.245,0.305,0.673,0.92,1.288c6.992-3.804,14.229-8.036,21.712-12.696c0.857-0.613,1.165-1.533,0.92-2.76l-0.184-2.392
		c0.489-0.736,0.98-1.656,1.472-2.76c0.736-3.557,1.777-8.832,3.128-15.824c1.472-8.34,2.82-14.044,4.048-17.112
		c0.857,0.124,2.024,0.063,3.496-0.184c1.348-0.736,5.457-2.697,12.328-5.888c5.273-2.329,9.261-4.784,11.96-7.36
		c0.368-0.368,1.041-0.552,2.024-0.552c0.856-1.472,1.776-2.208,2.76-2.208c1.472,0,2.576,1.228,3.312,3.68
		c0.489,1.596,0.92,3.128,1.288,4.6c1.225,2.087,2.636,5.152,4.232,9.2c0.857,1.351,1.9,3.436,3.128,6.256l2.944,1.104
		C169.577,154.306,173.809,151.729,173.809,150.01z M82.729,179.266l-0.368-1.656h-0.552l0.368,1.656H82.729z M86.593,105.298
		c-0.248-0.245-0.799-1.288-1.656-3.128c0,0.368,0.061,0.92,0.184,1.656c0,0.736,0,1.228,0,1.472H86.593z M86.041,172.642
		c-0.368,0-0.552,0.308-0.552,0.92c0.244,0,0.428-0.121,0.552-0.368C86.162,172.826,86.162,172.642,86.041,172.642z M88.617,94.442
		c-0.124-0.857-0.368-1.9-0.736-3.128c-0.615,0-0.92,0.368-0.92,1.104C86.961,93.278,87.513,93.954,88.617,94.442z M89.905,95.362
		l-0.552-0.92l-0.552,0.184l0.552,0.736H89.905z M90.089,82.114v-1.288h-0.552v1.288H90.089z M93.401,78.25
		c-0.491-1.348-1.288-3.128-2.392-5.336c-0.615,1.228-0.92,1.903-0.92,2.024C91.682,76.166,92.786,77.27,93.401,78.25z
		 M130.937,60.77c-3.436-3.556-7.791-8.34-13.064-14.352c-0.368-0.121-0.799-0.184-1.288-0.184c-0.736,0-1.412,0.431-2.024,1.288
		c-0.247-0.121-0.799-0.184-1.656-0.184c-3.56,0-5.644,0.799-6.256,2.392c-1.472,0-2.883,0.368-4.232,1.104
		c0.245,0.616,0.612,1.412,1.104,2.392c4.905,5.276,9.2,9.568,12.88,12.88l-0.552,0.552c-5.152-3.188-9.447-7.544-12.88-13.064
		c-1.104-1.593-2.087-2.392-2.944-2.392c-1.228,0-1.719,0.431-1.472,1.288c1.84,2.087,4.476,5.152,7.912,9.2
		c0.736,1.351,1.777,3.067,3.128,5.152c1.104,1.472,2.329,2.208,3.68,2.208c2.084,0,4.661-1.472,7.728-4.416
		c-2.576-2.944-6.687-7.297-12.328-13.064c0.245-0.121,0.429-0.184,0.552-0.184c0.612,0,1.288,0.676,2.024,2.024
		c1.349,0.736,3.433,2.332,6.256,4.784c0.121,0.492,0.429,1.167,0.92,2.024c1.225,1.104,2.82,2.76,4.784,4.968
		C126.521,63.838,129.097,62.366,130.937,60.77z M126.705,57.826c-0.736,0.124-1.412-0.152-2.024-0.828
		c-0.615-0.672-1.288-1.256-2.024-1.748c-0.736-0.488-1.84-1.225-3.312-2.208c-0.736-0.736-1.903-1.9-3.496-3.496v-1.288
		c0.368,0.492,1.041,1.104,2.024,1.84c0.368,0,0.92,0.184,1.656,0.552C120.633,51.51,123.025,53.902,126.705,57.826z
		 M139.401,113.21l-0.368,1.656c-0.248,0.736-0.248,1.472,0,2.208c0,0.247-0.092,0.583-0.276,1.012
		c-0.184,0.431-0.707,0.644-1.564,0.644c-0.247,0-0.707-0.184-1.38-0.552c-0.676-0.368-1.136-0.552-1.38-0.552
		c0.612,0-1.535,1.043-6.44,3.128c-0.86,0.124-2.148,0.431-3.864,0.92c-3.927,1.351-5.583,2.024-4.968,2.024
		c-2.208,0-3.312-0.796-3.312-2.392c0-0.736,0.612-3.801,1.84-9.2c0.98-2.944,2.084-7.481,3.312-13.616
		c0-0.736,0.429-4.6,1.288-11.592l1.84-0.92c0.612,0.368,1.288,1.104,2.024,2.208c0.98,2.823,2.329,5.888,4.048,9.2
		c0.368,0.247,0.796,0.615,1.288,1.104c1.472,2.208,2.944,4.479,4.416,6.808C138.234,108.978,139.401,111.618,139.401,113.21z
		 M121.737,119.466c0-0.245-0.124-0.644-0.368-1.196c-0.248-0.552-0.676-0.828-1.288-0.828c0,1.472,0,2.271,0,2.392
		c0.121,0,0.397-0.061,0.828-0.184C121.337,119.529,121.613,119.466,121.737,119.466z M127.993,116.522
		c0-0.121-0.124-0.673-0.368-1.656c-1.963-1.593-3.743-3.496-5.336-5.704c-1.104,4.172-1.656,5.768-1.656,4.784
		c0,0.492,0.46,1.351,1.38,2.576c0.92,1.228,1.624,1.84,2.116,1.84C124.986,118.362,126.274,117.75,127.993,116.522z
		 M124.681,107.874l-0.92-0.92l-0.368,0.368l0.92,0.92L124.681,107.874z M130.937,114.682c-1.472-1.472-3.559-3.617-6.256-6.44
		v1.288c1.348,1.228,3.064,3.067,5.152,5.52C130.078,115.174,130.445,115.05,130.937,114.682z"/>
	<path fill="#262626" d="M308.681,140.074c0-0.489-0.308,0.86-0.92,4.048c-0.735,3.804-2.392,7.668-4.968,11.592
		c-3.56,5.52-8.035,10.795-13.432,15.824c-10.428,9.692-18.34,15.58-23.736,17.664c-3.436,2.084-7.544,4.353-12.328,6.808
		c-1.228,0.736-3.191,1.84-5.888,3.312c-3.56,1.84-7.668,3.496-12.328,4.968c-0.736,0.857-1.104,1.656-1.104,2.392
		c-2.456-1.104-6.504-4.111-12.145-9.016c-5.644-4.907-9.323-8.648-11.04-11.224c0.124-2.576,0.124-4.232,0-4.968
		c-0.12,0-0.396-0.212-0.828-0.644c-0.428-0.428-0.644-0.828-0.644-1.196c0-0.245,0.399-0.92,1.196-2.024
		c0.796-1.104,1.195-1.9,1.195-2.392c0.121-3.065,0.368-7.728,0.736-13.984c0-3.557,0.429-8.953,1.288-16.192
		c0-0.368-0.247-0.736-0.736-1.104c0.244-2.453,0.612-6.256,1.104-11.408l0.735-37.72c-0.615-11.896-0.92-19.38-0.92-22.448
		c-0.368-0.612-0.552-1.104-0.552-1.472V58.93c0.612-0.612,1.472-1.409,2.576-2.392c0.735,0,1.84-0.06,3.312-0.184
		c1.349-0.736,3.496-1.656,6.44-2.76c3.064-0.612,6.316-1.564,9.752-2.852c3.433-1.288,5.824-2.053,7.176-2.3
		c0.736-0.612,2.024-1.288,3.864-2.024c6.992-1.472,12.204-2.208,15.64-2.208c3.312,0,5.889,0.308,7.729,0.92
		c6.5,1.963,12.021,5.52,16.56,10.672c0.368,1.104,1.225,2.455,2.576,4.048c0.612,0.368,1.656,0.92,3.128,1.656
		c1.104,1.228,2.881,2.944,5.336,5.152c0.121,0.615,0.429,1.412,0.92,2.392c2.82,4.171,4.232,8.404,4.232,12.696
		c0,2.332-0.247,4.479-0.736,6.44c-1.596,5.276-3.312,9.568-5.152,12.88c-0.491,0.983-1.655,2.883-3.495,5.704
		c-1.596,2.332-2.393,3.62-2.393,3.864c0,1.228,1.532,2.576,4.601,4.048c1.225,0.615,2.513,1.228,3.863,1.84
		c1.84,0.859,3.128,1.903,3.864,3.128c1.961,2.944,3.128,6.072,3.496,9.384c0.368,0.492,0.796,1.412,1.288,2.76
		C308.434,134.985,308.681,137.746,308.681,140.074z M219.81,120.386c-0.86-1.84-1.72-2.576-2.576-2.208
		C218.214,119.65,219.073,120.386,219.81,120.386z M218.889,126.09c-0.123-0.245-0.367-0.552-0.735-0.92
		c-0.492,1.104-0.432,2.087,0.184,2.944C218.458,127.625,218.642,126.95,218.889,126.09z M222.018,69.418
		c-0.368-1.593-1.412-2.453-3.129-2.576c-0.123,0.492-0.184,1.167-0.184,2.024c0.121,0,0.305-0.061,0.552-0.184
		c0.245-0.121,0.553-0.184,0.92-0.184c0.368,0,0.736,0.155,1.104,0.46C221.649,69.266,221.894,69.418,222.018,69.418z
		 M220.177,92.602c0-0.368-0.431-0.98-1.288-1.84C218.889,91.99,219.317,92.602,220.177,92.602z M225.146,89.658
		c-1.596-2.944-3.496-5.396-5.704-7.36v1.104c0,0.247,0.644,1.043,1.932,2.392c1.288,1.351,1.992,2.392,2.116,3.128
		C225.082,89.414,225.634,89.658,225.146,89.658z M237.657,71.626c-2.576-2.944-5.951-7.237-10.12-12.88
		c-0.615-0.368-0.983-0.552-1.104-0.552c-0.248,0-0.952,0.276-2.116,0.828c-1.168,0.552-1.933,0.891-2.3,1.012
		c8.216,8.343,12.816,12.512,13.8,12.512C236.553,72.546,237.165,72.242,237.657,71.626z M226.985,91.682
		c-0.247-0.121-0.368-0.428-0.368-0.92c-0.247,0-0.308,0.184-0.184,0.552C226.554,91.562,226.738,91.682,226.985,91.682z
		 M244.465,68.13c-0.983-1.84-2.576-4.108-4.784-6.808c-3.19-4.048-5.583-6.072-7.176-6.072c-1.351,0-2.576,0.92-3.68,2.76
		c0.488,0.859,2.576,3.496,6.256,7.912c2.697,3.191,4.292,4.784,4.784,4.784C240.846,70.706,242.378,69.85,244.465,68.13z
		 M304.817,139.338c0-9.812-2.208-16.252-6.624-19.32c-2.332-1.104-4.724-2.268-7.176-3.496c-3.191-1.472-4.784-2.944-4.784-4.416
		c0-1.84,0.368-3.128,1.104-3.864c2.208-2.084,4.66-6.009,7.36-11.776c2.944-6.256,4.416-11.101,4.416-14.536
		c0-0.244-0.124-0.704-0.368-1.38c-0.247-0.673-0.368-1.133-0.368-1.38c0-4.661-2.056-8.893-6.164-12.696
		c-4.111-3.801-8.372-5.704-12.788-5.704c-4.783,0-8.587,0.799-11.407,2.392c-1.473,0.248-3.376,0.676-5.704,1.288
		c-3.191,1.104-6.349,2.271-9.477,3.496c-3.128,1.228-6.348,3.067-9.66,5.52c-1.351,0.492-2.883,1.288-4.6,2.392
		c-1.104,2.332-1.656,5.459-1.656,9.384l1.288,9.384c0.612,5.275,0.92,9.875,0.92,13.8c0,0.247-0.063,1.351-0.184,3.312
		c-0.124,0.615-0.368,1.903-0.736,3.864c-0.368,1.472-0.491,2.7-0.368,3.68c0.245,4.048,0.429,5.951,0.553,5.704
		c-0.124,0.368-0.276,1.136-0.46,2.3c-0.185,1.167-0.276,1.995-0.276,2.484v12.88v11.776c0,0.368-0.155,0.92-0.46,1.656
		c-0.308,0.736-0.46,1.288-0.46,1.656c0,0.736,0.061,1.656,0.184,2.76c-0.368,2.7-0.552,4.172-0.552,4.416l0.552,1.656
		c-0.247,0.368-0.552,0.859-0.92,1.472c0.244,1.228,0.429,2.76,0.552,4.6c-0.735,1.964-1.167,4.479-1.288,7.544
		c0,3.927-0.062,6.135-0.184,6.624c-0.368,2.576-0.552,3.62-0.552,3.128v8.648c0.735,0.856,1.349,1.288,1.84,1.288
		c0.736,0,5.825-2.392,15.272-7.176c8.216-4.048,13.736-6.929,16.56-8.648c6.256-3.68,11.652-7.849,16.192-12.512
		c1.104-0.856,2.636-2.268,4.6-4.232c1.961-1.96,4.537-4.784,7.728-8.464c0.613-0.98,1.473-2.269,2.576-3.864
		C302.978,147.866,304.817,142.65,304.817,139.338z M273.169,56.906c-2.087-1.593-4.539-3.801-7.359-6.624
		c-1.229-1.472-2.884-2.208-4.969-2.208c-2.331,0-3.68,0.431-4.048,1.288c0.612,0.736,1.748,1.932,3.404,3.588
		c1.656,1.656,2.789,2.852,3.404,3.588l-2.024,0.184c-1.596-1.593-4.048-3.924-7.36-6.992c-0.247-0.121-0.983-0.184-2.208-0.184
		c-1.228,0-3.436,0.431-6.624,1.288c0,0.124-0.184,0.368-0.552,0.736c4.784,4.171,8.4,7.239,10.856,9.2l-0.92,0.92
		c-0.736-0.245-1.656-0.765-2.761-1.564c-1.104-0.796-2.943-2.421-5.52-4.876c-2.208-2.084-3.375-3.128-3.496-3.128
		c-1.964,0-4.663,0.736-8.096,2.208c4.048,2.456,7.912,6.624,11.592,12.512C252.498,64.514,261.394,61.202,273.169,56.906z
		 M279.978,93.522c0,4.663-3.068,9.323-9.2,13.984c0.12,0.492,0.061,1.288-0.185,2.392c-0.859-0.489-1.535-0.736-2.023-0.736
		c-0.124,0-1.504,0.644-4.141,1.932c-2.639,1.288-4.876,1.932-6.716,1.932c-2.331,0-3.559-0.673-3.68-2.024
		c-0.368-2.329-0.552-5.089-0.552-8.28c0-0.368,0.092-1.012,0.275-1.932c0.185-0.92,0.276-1.564,0.276-1.932
		c0.736-6.869,1.041-12.265,0.92-16.192c0.244-0.244,0.581-0.489,1.012-0.736c0.429-0.244,1.38-0.796,2.853-1.656
		c1.472-0.857,2.269-1.288,2.392-1.288c8.832,0,14.536,3.496,17.112,10.488c0.244,0.248,0.673,0.736,1.288,1.472
		C279.854,91.562,279.978,92.418,279.978,93.522z M283.289,140.442c0,0.983-0.432,2.944-1.288,5.888
		c-0.247,0.368-0.615,0.86-1.104,1.472c-4.048,7.728-11.716,15.396-23,23c-0.492-0.736-1.104-1.225-1.84-1.472v-14.536
		c0.367-9.077,0.552-14.536,0.552-16.376c0-3.188-0.063-4.292-0.185-3.312c0-0.489,0.368-1.777,1.104-3.864
		c4.66-2.576,7.912-3.864,9.752-3.864c0.368,0,0.828,0.215,1.38,0.644c0.552,0.431,0.949,0.644,1.196,0.644
		c1.225,0.124,2.82,0.492,4.784,1.104C280.405,132.838,283.289,136.394,283.289,140.442z M261.394,107.506
		c-0.736-2.208-1.656-5.336-2.761-9.384l-0.735-0.552c0,0.368-0.124,4.111-0.368,11.224h2.76L261.394,107.506z M265.073,106.954
		v-0.736c-1.104-2.453-2.7-5.888-4.784-10.304c-0.736,0-1.104,0.492-1.104,1.472c0,0.492,1.472,3.68,4.416,9.568H265.073z
		 M267.833,157.738c0-1.225-1.288-3.433-3.864-6.624c1.104,3.191,1.656,5.152,1.656,5.888c0,0.491-0.184,0.92-0.552,1.288
		c-0.983-0.612-1.84-2.024-2.576-4.232c-0.983-3.188-1.535-4.905-1.656-5.152c-0.859,4.048-1.288,5.767-1.288,5.152
		c0,1.964,0.305,5.276,0.92,9.936c0.368,0,1.686-0.765,3.956-2.3C266.697,160.162,267.833,158.842,267.833,157.738z
		 M262.497,134.186c0-0.244-0.552-0.368-1.656-0.368c-0.491,0.983-0.491,1.719,0,2.208
		C261.945,134.922,262.497,134.31,262.497,134.186z M270.041,103.09c-0.247-0.489-1.288-1.961-3.128-4.416
		c0.98,2.576,1.84,4.355,2.576,5.336C269.489,103.89,269.673,103.582,270.041,103.09z M271.513,153.69
		c0-0.98-1.167-2.084-3.495-3.312c0.367,2.087,1.04,3.864,2.023,5.336C271.021,154.978,271.513,154.306,271.513,153.69z
		 M268.201,49.362c0.98,1.228,2.576,2.944,4.784,5.152c2.576,1.719,4.477,2.576,5.704,2.576c0.244,0,1.04-0.121,2.392-0.368
		C279.978,53.902,275.682,51.45,268.201,49.362z"/>
	<path fill="#262626" d="M450.911,110.634c0,8.956-0.492,15.824-1.473,20.608c-0.49,4.172-2.023,11.287-4.6,21.344
		c-0.123,0.859-0.367,2.087-0.736,3.68c-1.471,4.172-2.975,8.404-4.508,12.696c-1.535,4.295-3.65,8.956-6.348,13.984
		c-2.943,5.399-8.832,10.18-17.664,14.352c-7.852,3.801-14.535,5.704-20.057,5.704c-3.436,0-7.055-1.044-10.855-3.128
		c-0.248,0-0.676,0-1.287,0c-0.369,0-0.893,0.092-1.564,0.276c-0.676,0.184-1.137,0.276-1.381,0.276
		c-0.367,0-1.471-0.552-3.312-1.656c-6.255-3.927-13.555-9.752-21.895-17.48c-0.247,0-0.615-0.06-1.104-0.184
		c-2.455-1.717-4.171-3.373-5.151-4.968c-1.964-3.433-4.663-8.648-8.096-15.64c-0.489-1.104-1.165-4.6-2.024-10.488
		c-1.349-9.2-2.024-16.129-2.024-20.792c0-5.273,0.492-11.04,1.473-17.296c0.368-2.453,1.535-7.113,3.496-13.984
		c-0.121-0.489-0.185-1.409-0.185-2.76c1.104-1.472,2.208-3.801,3.312-6.992c1.472-4.416,2.328-6.868,2.575-7.36
		c1.593-3.556,3.129-6.745,4.601-9.568c3.801-7.236,10.24-14.105,19.32-20.608c1.593-0.857,3.496-2.329,5.703-4.416
		c0.49,0,1.227,0.124,2.209,0.368l18.031-6.072c3.801,0.492,10.549,3.496,20.24,9.016c0.98,1.104,2.453,2.576,4.416,4.416
		c3.801,2.823,9.016,7.36,15.641,13.616c1.225,1.104,2.76,2.823,4.6,5.152c0.98,1.595,3.004,7.423,6.072,17.48
		C450.051,95.854,450.911,102.662,450.911,110.634z M346.582,124.066c-0.982-1.349-2.639-2.82-4.968-4.416
		c-0.368,0.615,0.092,1.503,1.38,2.668C344.282,123.485,345.479,124.066,346.582,124.066z M350.078,134.002
		c-3.067-4.661-5.888-7.42-8.464-8.28l0.368,1.656C343.207,128.114,345.907,130.322,350.078,134.002z M344.559,116.706
		c0-0.98-0.736-1.656-2.208-2.024C342.839,116.034,343.575,116.706,344.559,116.706z M344.927,146.514
		c-0.615-1.104-1.352-1.84-2.208-2.208v1.288C343.575,146.33,344.312,146.638,344.927,146.514z M349.71,110.266
		c-1.472-2.084-3.128-3.985-4.968-5.704c-0.615,0.615-0.92,1.228-0.92,1.84C344.803,106.894,346.767,108.182,349.71,110.266z
		 M348.238,96.098l-0.92-0.736l-0.368,0.368l0.92,0.736L348.238,96.098z M350.814,93.522c-0.491-1.225-1.228-2.269-2.208-3.128
		l-0.368,2.024C348.851,92.666,349.71,93.034,350.814,93.522z M362.223,89.106c0-0.368-0.676-1.041-2.024-2.024
		c-1.964-1.472-2.943-2.268-2.943-2.392c-0.983-1.225-2.7-2.513-5.152-3.864c-0.615,0.983-1.288,2.455-2.024,4.416
		c4.784,3.436,8.097,5.951,9.937,7.544C361.486,90.946,362.223,89.722,362.223,89.106z M354.862,121.858
		c0-1.104-0.799-2.329-2.392-3.68c0.488,0.615,0.765,1.688,0.828,3.22c0.06,1.535,0.275,2.607,0.644,3.22l0.552-0.552
		c-0.123-0.736-0.123-1.225,0-1.472C354.739,122.226,354.862,121.982,354.862,121.858z M358.727,95.546
		c-1.472-1.104-3.436-2.576-5.888-4.416c2.208,4.54,3.984,6.748,5.336,6.624C358.542,96.897,358.727,96.162,358.727,95.546z
		 M364.982,83.402l-9.936-8.28c-1.229,1.596-1.841,2.64-1.841,3.128c0,0.736,3.312,3.375,9.937,7.912
		C363.511,85.794,364.123,84.874,364.982,83.402z M355.599,108.058c-0.247-0.489-0.736-1.041-1.473-1.656
		C354.494,107.018,354.983,107.569,355.599,108.058z M366.086,81.01c0-0.368-0.062-0.796-0.184-1.288
		c-0.736-0.489-0.983-1.288-0.736-2.392c0.368-1.225,0.489-1.96,0.368-2.208c-1.104-1.104-2.271-2.268-3.496-3.496
		c-1.719-1.593-3.067-2.453-4.048-2.576c-0.615,1.104-1.288,2.639-2.023,4.6C360.503,77.086,363.879,79.538,366.086,81.01z
		 M446.678,113.762v-11.408c0-0.736-0.492-3.433-1.473-8.096c-1.104-5.273-2.115-9.413-3.035-12.42
		c-0.92-3.004-2.484-5.98-4.691-8.924c-2.701-3.556-5.768-6.684-9.201-9.384c-2.086-0.857-4.723-2.024-7.912-3.496
		c-5.398-2.82-9.814-4.232-13.248-4.232c-6.871,0-14.107,2.884-21.711,8.648c-3.312,2.7-5.4,4.416-6.256,5.152
		c-2.699,2.456-4.6,5.031-5.705,7.728c-0.615,0.492-1.351,1.167-2.208,2.024c-0.491,1.472-1.228,3.375-2.208,5.704
		c-0.368,0.368-0.707,0.892-1.012,1.564c-0.308,0.676-0.584,1.504-0.828,2.484c-0.615,0.615-1.472,1.656-2.576,3.128
		c0,0.615-0.063,1.351-0.184,2.208c-0.492,1.104-1.168,3.128-2.024,6.072c-1.104,3.804-1.535,6.196-1.288,7.176
		c-0.983,0.983-1.535,2.883-1.655,5.704c0,3.436-0.248,5.828-0.736,7.176c0.244,0.247,0.244,3.067,0,8.464
		c0.121,3.191,0.429,7.484,0.92,12.88c0.121,1.472,1.041,7.792,2.76,18.952c0.244,1.964,0.612,3.496,1.104,4.6
		c1.104,2.823,2.268,5.704,3.496,8.648c1.593,3.436,3.74,6.256,6.439,8.464c0.369,0.736,0.857,1.596,1.473,2.576
		c7.48,9.321,14.596,13.984,21.344,13.984c3.434,0,9.137-1.596,17.111-4.784c0.736-0.615,1.777-1.228,3.129-1.84
		c2.576-0.859,5.764-3.372,9.568-7.544c3.432-3.801,5.703-6.992,6.809-9.568c1.225-3.065,3.127-9.505,5.703-19.32
		c2.084-7.48,3.557-13.86,4.416-19.136L446.678,113.762z M375.838,66.29c-0.492-0.244-1.748-1.624-3.772-4.14
		c-2.024-2.513-3.22-3.772-3.588-3.772c-5.521,4.295-8.28,7.239-8.28,8.832c0,0.368,0.061,0.675,0.185,0.92
		c1.104,0.859,2.208,1.719,3.312,2.576c0.612,0.615,1.164,1.228,1.656,1.84c0.98,0.983,1.84,1.472,2.576,1.472
		C369.03,74.018,371.667,71.442,375.838,66.29z M384.487,58.378c-2.699-2.453-4.848-4.721-6.439-6.808
		c-0.736,0.368-1.596,0.828-2.576,1.38c-0.984,0.552-1.84,0.952-2.576,1.196c-1.352,0.615-2.025,1.351-2.025,2.208
		c0,0.492,0.98,1.84,2.945,4.048c1.961,2.208,3.371,3.559,4.232,4.048C381.727,61.63,383.872,59.606,384.487,58.378z
		 M430.303,132.714c-0.984,0.859-1.564,2.056-1.748,3.588c-0.186,1.535-0.34,3.036-0.461,4.508c-0.246,2.208-0.92,4.479-2.023,6.808
		c-3.805,9.079-7.668,15.52-11.592,19.32c-4.785,4.295-8.344,6.44-10.672,6.44c-4.172,0-7.791-0.857-10.857-2.576
		c-3.68-2.084-6.439-4.905-8.279-8.464c-1.104-2.084-2.393-5.336-3.863-9.752c-0.369-1.104-0.676-2.821-0.92-5.152
		c-0.248-2.329-0.553-6.192-0.92-11.592c-0.248-4.784-0.369-7.297-0.369-7.544c0-4.169,1.104-10.12,3.312-17.848
		c0.98-1.961,2.453-4.905,4.416-8.832c0.488-1.716,1.348-3.985,2.576-6.808c0.121-0.244,1.287-1.348,3.496-3.312
		c0.121-0.368,0.428-0.98,0.92-1.84c0.367-0.489,1.471-1.409,3.312-2.76c2.574-1.717,5.395-2.576,8.463-2.576
		c6.5,0,11.961,2.024,16.377,6.072c0.734,1.596,1.715,3.62,2.943,6.072c1.592,3.067,2.576,6.012,2.943,8.832
		c0.369,2.332,0.674,4.663,0.92,6.992c1.35,5.031,2.025,8.343,2.025,9.936V132.714z M394.606,52.306
		c-0.859-0.121-1.963-0.92-3.312-2.392c-1.35-1.472-2.455-2.208-3.311-2.208c0.367,0-1.721,0.799-6.256,2.392v1.288
		c2.695,3.68,4.6,5.52,5.703,5.52c0.488,0,1.686-0.552,3.588-1.656C392.918,54.146,394.116,53.166,394.606,52.306z M403.991,126.09
		c0-3.68-0.123-7.113-0.369-10.304c-0.49-6.009-1.104-11.345-1.84-16.008c-0.367-2.697-0.799-4.537-1.287-5.52
		c-0.492-0.98-1.352-1.656-2.576-2.024c-4.049,3.191-7.852,8.648-11.408,16.376c-0.736,1.719-1.504,4.847-2.301,9.384
		c-0.799,4.54-1.195,8.096-1.195,10.672v8.464c0,0.368,0.061,0.859,0.184,1.472c0.121,0.615,0.186,0.983,0.186,1.104
		c0.855,14.108,3.004,21.16,6.439,21.16c1.961,0,4.168-1.9,6.623-5.704c1.105-1.96,2.209-3.985,3.312-6.072
		c0.736-0.98,1.594-2.392,2.576-4.232c0.367-1.225,0.736-3.065,1.104-5.52c0-2.084,0-5.028,0-8.832
		C403.807,126.706,403.991,125.233,403.991,126.09z M413.743,159.946c0-0.857-1.535-2.636-4.6-5.336
		c-1.229-1.225-3.008-2.82-5.336-4.784c-0.615,1.351-1.473,3.068-2.576,5.152c-2.088,3.56-5.336,6.808-9.752,9.752
		c0.736,0.615,1.715,1.351,2.943,2.208c3.434,1.719,6.316,2.576,8.648,2.576c1.104,0,2.576-0.673,4.416-2.024
		c1.84-1.348,2.76-2.452,2.76-3.312c-3.068-2.452-5.951-5.089-8.648-7.912c1.717-0.368,5.09,2.148,10.121,7.544
		c0.119-0.368,0.488-1.041,1.104-2.024C413.434,160.806,413.743,160.193,413.743,159.946z M408.774,51.018
		c-2.086-3.924-5.398-5.888-9.936-5.888c-3.559,0-5.889,0.799-6.992,2.392c3.557,2.455,5.764,3.803,6.625,4.048
		c0.488,0.247,2.023,0.368,4.6,0.368C406.014,51.938,407.915,51.633,408.774,51.018z M417.239,155.346
		c0,0.247-0.984-0.98-2.945-3.68c-0.367,0.736-0.859,1.104-1.471,1.104c-0.123,0-1.26-0.98-3.404-2.944
		c-2.148-1.96-3.527-3.004-4.141-3.128v2.024l9.385,8.648h1.473C416.87,155.777,417.239,155.102,417.239,155.346z M410.983,147.434
		v-1.288c-2.088-2.452-3.436-3.68-4.049-3.68l-0.551,0.368v1.288C407.608,144.982,409.143,146.086,410.983,147.434z
		 M408.774,112.106l-1.104-0.552l-0.184,0.552l1.104,0.552L408.774,112.106z M411.903,109.898c-1.352-1.225-2.393-2.024-3.129-2.392
		C409.999,109.102,411.043,109.898,411.903,109.898z M420.366,148.17c0-0.368-0.307-0.796-0.92-1.288
		c-0.982-0.736-1.535-1.165-1.656-1.288c1.717,2.332,1.289,3.68-1.287,4.048v1.288c1.225,0.983,2.023,1.472,2.393,1.472
		C419.875,150.318,420.366,148.906,420.366,148.17z M423.495,138.418v-1.656c-0.736-0.489-1.719-1.104-2.943-1.84
		C420.551,136.642,421.532,137.806,423.495,138.418z"/>
	<path fill="#262626" d="M580.813,86.714c0,0.247-0.184,1.412-0.551,3.496c-0.369,2.087-0.615,3.62-0.736,4.6
		c-0.248,2.332-0.367,7.976-0.367,16.928v35.88c0,0.248-0.094,0.736-0.277,1.472c-0.184,0.736-0.338,1.228-0.459,1.472
		c-1.352,15.58-7.176,28.704-17.48,39.376c-1.473,1.84-3.805,4.168-6.992,6.992c-0.492,0-1.168,0.245-2.023,0.736
		c-0.859,0.489-2.209,1.349-4.049,2.576c-3.066,1.349-5.398,2.208-6.992,2.576c-2.822,0.736-5.768,1.104-8.832,1.104
		c-0.246,0-1.471-0.063-3.68-0.184c-2.207-0.124-3.496-0.184-3.863-0.184c-2.209,0-5.031-0.92-8.465-2.76
		c-1.227-0.615-2.639-1.719-4.232-3.312c-1.84-2.087-2.975-3.283-3.402-3.588c-0.432-0.308-1.229-0.983-2.393-2.024
		c-1.168-1.043-2.852-2.668-5.061-4.876c-0.982-0.368-2.332-1.164-4.047-2.392c-0.248-0.98-0.736-2.268-1.473-3.864
		c-2.455-3.312-4.172-6.992-5.152-11.04c-0.736-3.188-1.412-6.44-2.023-9.752c-0.369-1.225-0.92-5.304-1.656-12.236
		c-0.736-6.929-1.104-11.132-1.104-12.604V98.49c0-0.244,0.154-1.656,0.459-4.232c0.309-2.576,0.461-3.985,0.461-4.232v-10.12
		c0-1.472,0.367-3.617,1.104-6.44c0.736-2.82,1.348-4.353,1.84-4.6c0.488-0.244,3.248-0.736,8.279-1.472
		c6.746-3.064,10.426-4.6,11.041-4.6c1.592,0,2.451,0.491,2.576,1.472c-0.492,1.228-0.984,1.964-1.473,2.208
		c-1.104,0.124-2.822,0.492-5.152,1.104c-0.859,0.492-2.146,1.228-3.863,2.208c0.736,0.983,3.004,3.375,6.809,7.176
		c0.855,1.351,2.207,3.375,4.047,6.072c0.244,0.368,0.674,0.552,1.289,0.552c0.98,0,2.512-0.673,4.6-2.024
		c-0.492-0.368-1.104-0.98-1.84-1.84c-2.332-2.329-5.152-6.132-8.465-11.408c0.121-0.121,0.369-0.305,0.736-0.552
		c0.736,0.983,1.777,2.332,3.129,4.048c0.611,0.368,1.408,0.86,2.391,1.472c1.35,1.104,2.76,3.007,4.232,5.704
		c0.121,0.124,0.184,0.799,0.184,2.024h0.184c0.121,0.124,0.307,0.184,0.553,0.184c-0.615,0,0.857-0.429,4.416-1.288
		c0.121-0.121,0.184-0.368,0.184-0.736c0-0.245-1.535-2.329-4.6-6.256c-3.068-3.924-4.969-6.808-5.703-8.648
		c0.611-0.736,1.104-1.104,1.471-1.104c2.086,0,5.152,3.128,9.201,9.384c1.961,1.963,4.107,4.784,6.439,8.464
		c0.613,1.719,0.672,3.496,0.184,5.336c0.613,1.964,0.43,4.663-0.551,8.096c0.119-0.245,0.305,0.492,0.551,2.208
		c0.369,3.436,0.488,5.704,0.369,6.808c0,0.248-0.092,0.584-0.277,1.012c-0.184,0.431-0.275,0.768-0.275,1.012
		c0,0.491,0.121,1.351,0.367,2.576c0.246,1.228,0.369,2.148,0.369,2.76c0,0.615-0.092,1.596-0.275,2.944
		c-0.186,1.351-0.277,2.147-0.277,2.392v26.312c0.121,0.247,0.369,2.271,0.736,6.072c0,0.983,0.184,1.84,0.553,2.576
		c1.471,0.368,3.219-0.552,5.244-2.76c2.023-2.208,3.156-4.108,3.402-5.704c1.227-7.481,1.842-14.168,1.842-20.056
		c0-0.489-0.186-3.188-0.553-8.096c0-0.98-0.309-2.576-0.92-4.784c-0.615-2.208-0.92-3.433-0.92-3.68v-9.2
		c0-0.245-0.156-2.269-0.461-6.072c-0.307-3.801-0.459-5.825-0.459-6.072c0.736-4.416,1.104-7.297,1.104-8.648V54.33
		c0.121-0.368,0-0.888-0.367-1.564c-0.369-0.673-0.553-1.133-0.553-1.38c0-0.368,0.244-0.98,0.736-1.84
		c3.68-1.104,7.42-2.513,11.225-4.232l8.279-3.864c0.488,0,0.92,0.368,1.287,1.104c0.49,1.228,0.797,1.84,0.92,1.84
		c0.857-0.244,1.225-0.796,1.105-1.656h2.023c0.98,0,3.432,1.963,7.359,5.888c3.926,3.927,6.285,6.624,7.084,8.096
		c0.797,1.472,1.197,4.111,1.197,7.912v12.512c0,0.248,0.119,1.84,0.367,4.784C580.69,84.874,580.813,86.47,580.813,86.714z
		 M490.469,98.858c-0.49-0.98-1.043-1.472-1.656-1.472v1.472H490.469z M491.022,104.562c-0.492-1.225-1.104-1.96-1.84-2.208
		l-0.369,1.84C489.918,104.441,490.653,104.562,491.022,104.562z M492.125,131.978c-0.492-0.856-1.352-1.96-2.576-3.312
		c-0.49,1.104-0.736,1.719-0.736,1.84c0,0.492,0.461,0.891,1.381,1.196C491.114,132.01,491.758,132.102,492.125,131.978z
		 M492.678,113.21c-1.229-1.84-2.393-3.249-3.496-4.232v2.208c0.736,1.472,1.531,2.148,2.393,2.024H492.678z M493.782,97.57
		c-0.367-0.612-1.656-2.392-3.863-5.336c0,0.247-0.064,0.799-0.186,1.656c-0.123,0.86-0.184,1.656-0.184,2.392
		c0.488-0.244,0.92-0.368,1.289-0.368C491.083,95.914,492.063,96.466,493.782,97.57z M492.125,122.778
		c-0.859-1.593-1.596-2.513-2.207-2.76l-0.369,1.84C490.163,122.105,491.022,122.41,492.125,122.778z M493.782,149.09
		c-0.736-1.472-1.963-2.82-3.68-4.048v2.392C490.959,147.682,492.186,148.233,493.782,149.09z M491.206,79.722v-1.104h-0.553v1.104
		H491.206z M491.942,151.85l-0.92-1.104l-0.369,0.184l0.736,1.288L491.942,151.85z M492.678,74.938v-0.552l-1.473-0.368v0.552
		L492.678,74.938z M509.239,84.506c0-1.104-0.553-2.269-1.656-3.496c-0.859-0.857-1.781-1.777-2.76-2.76
		c-3.928-4.537-6.32-6.808-7.178-6.808c-1.227,0-1.719,0.431-1.471,1.288c0.488,0.736,2.451,3.496,5.887,8.28
		c2.33,3.312,3.617,4.968,3.865,4.968C506.538,85.978,507.643,85.489,509.239,84.506z M503.534,119.282l-0.367-0.92l-0.553,0.184
		l0.553,0.736H503.534z M503.901,175.954l-0.551-0.552l-0.369,0.368l0.553,0.552L503.901,175.954z M577.502,88.002
		c0-0.245-0.125-1.288-0.369-3.128c-0.246-1.84-0.367-2.88-0.367-3.128v-11.04c0-4.048-0.184-6.992-0.553-8.832
		c-0.859-0.736-2.023-1.104-3.496-1.104c-0.736,0-2.455,0.736-5.152,2.208c-0.246,0.492-0.49,0.86-0.734,1.104
		c-1.596,0.736-3.744,1.656-6.441,2.76c0,0.615-0.307,6.563-0.92,17.848c0.121,2.823,0.244,6.748,0.369,11.776
		c0,2.208-0.125,5.091-0.369,8.648c-0.246,3.067-0.367,5.275-0.367,6.624c0,0.492,0.092,1.228,0.275,2.208
		c0.184,0.983,0.275,1.719,0.275,2.208c-0.246,0.859-0.49,2.087-0.734,3.68c-0.125,0.491,0,2.392,0.367,5.704
		c0.488,6.256,0.244,14.416-0.736,24.472c-0.367,0.983-0.736,2.208-1.104,3.68c-0.736,4.663-2.576,8.619-5.52,11.868
		c-2.945,3.252-6.32,4.876-10.121,4.876c1.105,0-0.307-0.121-4.23-0.368c-0.369-0.245-0.861-0.612-1.473-1.104
		c-0.492,0-1.076-0.121-1.748-0.368c-0.676-0.244-1.719-1.165-3.129-2.76c-1.41-1.593-2.178-2.637-2.299-3.128
		c-1.104-5.52-1.656-16.988-1.656-34.408v-9.2c0-4.66,0-6.868,0-6.624l-0.369-0.368v-28.52c-0.123-0.121-0.49-0.489-1.104-1.104
		c-5.52,1.963-10.979,3.864-16.375,5.704c-1.721,0.86-2.576,4.048-2.576,9.568c0,0.247,0.213,2.208,0.645,5.888
		c0.428,3.68,0.643,5.644,0.643,5.888c0,0.247-0.215,2.516-0.643,6.808c-0.432,4.295-0.645,6.563-0.645,6.808v44.16
		c0,0.248,0.244,1.32,0.736,3.22c0.488,1.903,0.734,3.283,0.734,4.14c-0.246,1.596-0.367,3.988-0.367,7.176
		c0.121,0.736,0.92,2.944,2.393,6.624c0.488,1.472,1.348,3.372,2.576,5.704c1.715,1.96,3.74,3.433,6.072,4.416
		c3.555,1.348,8.279,2.024,14.168,2.024c2.82,0,5.58-0.492,8.279-1.472c3.312-1.104,7.48-3.312,12.512-6.624
		c1.473-1.596,3.496-3.68,6.072-6.256c1.225-1.225,2.76-2.944,4.6-5.152c1.348-2.208,2.76-4.477,4.232-6.808
		c1.592-2.82,2.576-5.457,2.943-7.912c0.244-0.489,0.488-1.041,0.736-1.656c0.244-1.349,0.553-3.004,0.92-4.968
		c1.104-3.801,1.717-8.34,1.84-13.616c0.121-4.292,0.184-8.584,0.184-12.88c0.121-2.944,0.186-7.052,0.186-12.328V104.01
		c0-2.944,0.305-6.685,0.92-11.224c0-0.612,0.152-1.5,0.459-2.668C577.346,88.954,577.502,88.25,577.502,88.002z M552.663,159.026
		v-1.104c-0.736,0-1.781-0.796-3.129-2.392c-2.207-2.697-3.436-4.108-3.68-4.232c-0.123-0.121-0.432-0.061-0.92,0.184
		c0.121,0.247,1.104,1.719,2.943,4.416c1.35,1.719,1.961,3.067,1.84,4.048c0.369,0.615,0.553,1.043,0.553,1.288l-0.553,0.552
		c-1.471,0-3.252-1.472-5.336-4.416c-2.699-4.048-4.355-6.376-4.967-6.992c-0.248,0.491-1.168,1.351-2.762,2.576
		c-1.594,1.228-2.699,1.84-3.311,1.84c-0.248,0-0.799-0.121-1.656-0.368v2.208c-0.123,0.736,0.553,3.191,2.023,7.36
		c0,0.248,1.225,0.828,3.68,1.748c2.453,0.92,4.109,1.38,4.969,1.38c-0.615,0,0.553-0.244,3.496-0.736
		c0.736-0.121,2.053-1.133,3.955-3.036C551.709,161.45,552.663,160.009,552.663,159.026z M544.565,153.69
		c-0.246-0.489-0.49-1.288-0.734-2.392c0.367-0.736,0.336-1.625-0.092-2.668c-0.432-1.041-1.014-1.685-1.748-1.932
		c-0.736,1.472-1.105,2.271-1.105,2.392c0,0.368,0.49,1.043,1.473,2.024C543.461,152.465,544.198,153.322,544.565,153.69z
		 M546.59,66.842c-0.736-1.349-1.904-2.82-3.496-4.416c-0.369,0.368-0.553,0.676-0.553,0.92
		C542.542,64.082,543.891,65.25,546.59,66.842z M544.381,56.538c0-0.736-0.432-1.104-1.287-1.104l-0.369,1.84
		c0.244,0.368,0.613,0.552,1.105,0.552c0-0.121,0.092-0.305,0.275-0.552C544.29,57.03,544.381,56.786,544.381,56.538z
		 M546.958,90.946c-0.982-1.716-2.393-3.496-4.232-5.336C543.094,87.206,544.502,88.985,546.958,90.946z M546.59,101.802
		c-0.859-1.961-1.779-3.373-2.76-4.232l-0.553,1.84C544.381,100.514,545.485,101.313,546.59,101.802z M553.95,154.058
		c0-1.104-3.312-4.968-9.936-11.592c-0.492,1.596-0.736,2.208-0.736,1.84c0,1.352,3.312,5.152,9.936,11.408
		C553.702,155.226,553.95,154.673,553.95,154.058z M547.877,54.698c-0.246-0.612-0.615-1.288-1.104-2.024l-0.736,0.184
		L547.877,54.698z M548.981,104.194c0-0.121-0.123-0.429-0.367-0.92c-0.248,0-0.307,0.184-0.184,0.552
		C548.551,104.073,548.735,104.194,548.981,104.194z M561.678,60.954c-0.615-0.98-2.516-2.881-5.705-5.704
		c-2.576-2.452-4.047-4.476-4.416-6.072c-0.367,0-0.799,0.063-1.287,0.184c-0.492,0.124-0.799,0.184-0.92,0.184v1.472
		c1.348,2.087,3.496,5.092,6.439,9.016c0.736,0.492,1.594,1.288,2.576,2.392C559.959,61.938,561.063,61.446,561.678,60.954z
		 M569.774,56.906c-2.209-2.208-4.111-4.232-5.705-6.072c-0.859-1.225-1.779-2.42-2.76-3.588c-0.982-1.164-2.207-1.748-3.68-1.748
		c-0.246,0-0.859,0.248-1.84,0.736c-0.982,0.492-1.688,0.859-2.115,1.104c-0.432,0.247-0.645,0.736-0.645,1.472
		c0,0.983,0.428,1.84,1.287,2.576c7.236,5.399,10.732,8.096,10.488,8.096C566.03,59.482,567.686,58.625,569.774,56.906z
		 M555.239,105.298c0.244-0.736-0.248-1.533-1.473-2.392C553.766,103.642,554.254,104.441,555.239,105.298z M554.686,149.826
		c0.488-0.736,0.305-1.409-0.553-2.024C554.133,148.786,554.317,149.458,554.686,149.826z"/>
	<path fill="#262626" d="M705.932,60.034c0,0.247-0.246,1.075-0.734,2.484c-0.492,1.412-0.736,2.363-0.736,2.852
		c-0.736,4.172-1.104,8.832-1.104,13.984c0,5.031,0.059,7.116,0.184,6.256c-2.455,0.983-5.828,2.455-10.121,4.416
		c-0.615,0.124-1.471,0.308-2.576,0.552c-1.596,0.615-3.436,1.84-5.52,3.68c-0.492,5.275-0.736,9.752-0.736,13.432v11.408
		c0,0.248-0.154,1.748-0.459,4.508c-0.309,2.76-0.461,4.263-0.461,4.508c0,2.576,0.244,4.968,0.736,7.176
		c0.369,1.104,0.553,3.436,0.553,6.992c0,0.736-0.248,1.535-0.736,2.392c0.488-0.121,0.736,0.063,0.736,0.552
		c0,0.124-0.064,0.676-0.184,1.656c0,1.104,0,2.208,0,3.312c-0.248,1.963-0.553,5.399-0.922,10.304
		c-0.123,2.208-0.184,3.56-0.184,4.048c0.369,0.615,0.553,0.983,0.553,1.104v20.792c-0.492,0.492-1.596,1.288-3.312,2.392
		c-0.246,0.736-0.859,1.656-1.84,2.76c-2.822,1.472-7.176,3.985-13.064,7.544c-0.367,0.368-1.596,1.593-3.68,3.68
		c-1.596,1.593-2.639,2.392-3.127,2.392c-0.492,0-0.92-0.248-1.289-0.736c-3.559-6.624-8.711-12.207-15.455-16.744
		c0.244-3.925,0.672-9.812,1.287-17.664c0,0.124-0.307-0.368-0.92-1.472c0.488-0.736,0.857-2.269,1.104-4.6
		c0.121-1.84,0.244-3.68,0.369-5.52c0.121-0.368,0-1.225-0.369-2.576c0.121-0.368,0.369-0.796,0.736-1.288
		c0.369-12.756,0.553-18.768,0.553-18.032c-0.125-3.68-0.031-6.316,0.275-7.912c0.305-1.593,0.461-3.128,0.461-4.6
		c0-0.98-0.248-2.513-0.736-4.6c-0.492-2.084-0.736-3.188-0.736-3.312c0-0.612,0.061-1.532,0.184-2.76
		c0.121-1.225,0.184-2.084,0.184-2.576c0.121-0.245-0.062-0.368-0.551-0.368c0.488,0-0.859,0.86-4.049,2.576
		c-2.332,1.228-5.275,1.656-8.832,1.288c-1.352-2.084-3.68-4.6-6.992-7.544c-3.926-3.68-6.131-5.764-6.623-6.256
		c-0.857-0.98-1.35-2.024-1.473-3.128c-0.367-3.801-0.551-8.524-0.551-14.168l1.654-15.272c0.492-0.489,0.92-0.736,1.289-0.736
		c0.246,0,0.764,0.308,1.564,0.92c0.795,0.615,1.379,0.92,1.748,0.92c0.611,0,3.74-1.225,9.383-3.68
		c1.35-0.244,3.25-0.736,5.705-1.472c2.084-0.857,4.416-1.961,6.992-3.312c0.979-0.245,2.268-0.673,3.863-1.288
		c4.168-1.961,9.812-4.292,16.928-6.992c0.367-0.489,0.98-1.104,1.84-1.84c9.201-4.661,14.904-6.992,17.111-6.992
		c0.369,0,0.613,0.063,0.736,0.184c0.121,0.124,0.305,0.184,0.553,0.184c0.244,0,1.041-0.489,2.393-1.472
		c0.734-0.489,1.592-0.736,2.576-0.736c0.244,0,0.643,0.063,1.195,0.184c0.553,0.124,0.949,0.184,1.195,0.184
		c0.369,0.615,0.43,1.288,0.184,2.024c1.717,2.576,3.496,5.215,5.336,7.912c2.697,3.68,4.293,5.52,4.785,5.52
		c0.244,0,0.553-0.092,0.92-0.276s0.611-0.276,0.736-0.276c0.488,0.368,0.797,0.615,0.92,0.736
		C705.749,59.729,705.932,60.526,705.932,60.034z M640.981,82.114c-1.352-1.349-2.455-2.82-3.312-4.416
		c-0.367-0.736-1.535-2.3-3.496-4.692c-1.963-2.392-3.252-3.588-3.863-3.588c-0.367,0-1.104,0.431-2.209,1.288
		c-1.104,0.86-1.84,1.596-2.207,2.208c7.604,7.607,11.285,11.408,11.039,11.408C638.893,84.322,640.245,83.586,640.981,82.114z
		 M668.95,71.994c-0.861-1.104-1.781-2.452-2.762-4.048c-0.246-0.489-1.746-2.208-4.508-5.152c-2.76-2.944-4.387-4.416-4.875-4.416
		c-0.736,0-2.18,0.552-4.324,1.656c-2.148,1.104-3.221,2.024-3.221,2.76c2.453,2.699,5.705,6.44,9.752,11.224l-0.551,0.552h-0.736
		c-7.852-7.36-11.715-11.04-11.592-11.04c-0.369,0-1.26,0.308-2.668,0.92c-1.412,0.615-2.24,1.167-2.484,1.656
		c6.377,5.644,9.568,8.956,9.568,9.936c0,0.616-0.309,1.104-0.92,1.472c-1.104-0.368-1.871-0.856-2.301-1.472
		c-0.432-0.612-0.92-1.348-1.471-2.208c-0.553-0.857-1.873-2.3-3.957-4.324c-2.088-2.024-3.436-3.036-4.049-3.036
		c-0.615,0-1.902,0.552-3.863,1.656v1.288c0.857,0.983,2.084,2.455,3.68,4.416c0.369,0.736,0.857,1.719,1.473,2.944
		c1.104,1.104,2.576,2.76,4.416,4.968L668.95,71.994z M635.461,108.978c0-0.98-0.248-2.208-0.736-3.68
		c-0.123,0.247-0.184,1.656-0.184,4.232C635.153,109.53,635.461,109.346,635.461,108.978z M701.702,62.058
		c-1.105-1.104-1.904-1.656-2.393-1.656c-0.492,0-4.232,1.535-11.225,4.6c-3.436,1.963-8.527,4.724-15.271,8.28
		c-4.049,2.087-7.975,3.804-11.775,5.152c-4.416,1.719-10.857,4.295-19.32,7.728c-0.123,0.736-1.104,1.472-2.943,2.208
		c-0.248,0.124-0.432,0.308-0.553,0.552c-0.123,0.736-0.275,1.872-0.461,3.404c-0.184,1.535-0.275,2.363-0.275,2.484
		c0,2.332,0.428,6.992,1.289,13.984c2.207-0.857,5.336-2.145,9.383-3.864c1.84-0.98,4.477-2.269,7.912-3.864
		c0.613-0.368,1.594-0.857,2.943-1.472c2.82-0.736,4.109-1.104,3.865-1.104c0.98,0,1.531,0.736,1.656,2.208
		c0.244,1.104,0.244,2.516,0,4.232c-0.248,2.087-0.369,2.944-0.369,2.576v24.472c0.121,0.492,0.305,1.564,0.553,3.22
		c0.244,1.656,0.367,2.607,0.367,2.852c0,0.247-0.092,0.92-0.275,2.024s-0.275,1.78-0.275,2.024v7.728l-2.945,41.768
		c0,0.121,0.061,0.644,0.186,1.564c0.119,0.92,0.184,1.564,0.184,1.932l-0.369,0.368h1.84c4.785-3.067,10.305-6.5,16.561-10.304
		c0.736-3.801,1.104-6.193,1.104-7.176v-9.2c0-0.121-0.184-0.428-0.551-0.92c0-1.593,0-3.617,0-6.072
		c0-2.329,0.244-6.316,0.736-11.96l0.734-7.912c0-0.244-0.275-2.176-0.828-5.796c-0.551-3.617-0.826-5.549-0.826-5.796
		c0-4.048,0.488-8.769,1.471-14.168c0.121-0.489,0.121-1.225,0-2.208c-0.246-3.433-0.246-6.009,0-7.728
		c0.369-1.716,0.553-5.273,0.553-10.672c0-0.121-0.123-0.673-0.369-1.656c-0.123-0.856-0.123-1.532,0-2.024
		c0.121-0.612,0.49-1.041,1.105-1.288c1.104-0.489,2.695-1.164,4.783-2.024c0.98-0.121,2.145-0.368,3.496-0.736
		c2.697-1.225,4.721-2.208,6.072-2.944c2.084-1.225,3.127-2.329,3.127-3.312C700.842,79.478,701.209,72.978,701.702,62.058z
		 M649.446,169.698c-0.615-1.225-1.289-1.961-2.025-2.208c0,0.124-0.123,0.368-0.367,0.736
		C647.911,169.086,648.709,169.578,649.446,169.698z M649.077,150.746l-0.551-0.184l-0.369,0.92l0.369,0.184L649.077,150.746z
		 M651.1,117.074c-0.734-1.348-1.596-2.208-2.574-2.576v1.104C649.504,116.585,650.366,117.074,651.1,117.074z M650.18,137.866
		c-0.246-0.489-0.615-1.165-1.104-2.024c-0.123,0-0.307,0.492-0.551,1.472C649.014,137.682,649.565,137.866,650.18,137.866z
		 M658.829,182.578h-0.551v-1.472h0.551V182.578z M659.565,173.562h-0.553l-0.367,1.84h0.553L659.565,173.562z M660.301,152.586
		c-0.248,0.247-0.492,0.491-0.736,0.736c0.121,0.247,0.305,0.552,0.553,0.92C660.237,154.122,660.301,153.569,660.301,152.586z
		 M678.516,65.922c-2.207-2.453-5.643-6.44-10.303-11.96c-3.312,1.228-6.012,2.147-8.096,2.76c-0.248,0.124-0.369,0.308-0.369,0.552
		c3.924,4.416,7.666,8.895,11.225,13.432C675.266,69.358,677.782,67.762,678.516,65.922z M660.852,125.354
		c-0.49,0-0.734,0.308-0.734,0.92c0,0.247,0.244,0.675,0.734,1.288C661.342,127.073,661.342,126.337,660.852,125.354z
		 M690.293,60.954l-10.672-12.88c-0.736,0-2.455,0.736-5.152,2.208c-2.699,1.472-4.232,2.392-4.6,2.76
		c1.104,1.104,2.576,2.64,4.416,4.6c0.98,1.472,2.268,3.312,3.863,5.52c1.225,1.352,2.268,2.024,3.129,2.024
		C682.381,65.186,685.385,63.777,690.293,60.954z M697.653,56.906c-0.736-0.98-1.688-2.36-2.852-4.14
		c-1.168-1.777-2.301-3.28-3.404-4.508c-1.719-2.084-3.068-3.128-4.049-3.128c-0.246,0-1.043,0.308-2.391,0.92
		c-1.352,0.615-2.332,0.983-2.945,1.104v1.104c0.98,0.492,1.84,1.167,2.576,2.024c1.473,1.964,2.27,3.067,2.393,3.312
		c0.121,0.247,0.305,0.676,0.553,1.288c1.104,0.859,2.576,2.332,4.416,4.416c1.104,0.247,1.531,0.368,1.287,0.368
		c0.367,0,1.164-0.396,2.393-1.196C696.854,57.674,697.53,57.153,697.653,56.906z"/>
</g>
<g>
	<path fill="#262626" d="M66.841,286.578c0,0.902-0.322,1.675-0.964,2.317c-0.643,0.643-1.415,0.964-2.317,0.964
		s-1.675-0.321-2.317-0.964c-0.643-0.642-0.964-1.415-0.964-2.317v-39.375c0-0.902,0.321-1.675,0.964-2.317
		c0.642-0.642,1.415-0.964,2.317-0.964s1.675,0.322,2.317,0.964c0.642,0.643,0.964,1.415,0.964,2.317v0.861
		c3.254-2.762,7.082-4.143,11.484-4.143c4.977,0,9.229,1.764,12.756,5.291c0.738,0.738,1.408,1.518,2.01,2.338
		c0.601-0.82,1.271-1.6,2.01-2.338c3.527-3.527,7.779-5.291,12.756-5.291c4.977,0,9.229,1.764,12.756,5.291
		s5.291,7.779,5.291,12.756v24.609c0,0.902-0.322,1.675-0.964,2.317c-0.643,0.643-1.415,0.964-2.317,0.964s-1.675-0.321-2.317-0.964
		c-0.643-0.642-0.964-1.415-0.964-2.317v-24.609c0-3.172-1.122-5.879-3.363-8.121c-2.242-2.242-4.949-3.363-8.121-3.363
		c-3.172,0-5.879,1.122-8.121,3.363c-2.242,2.242-3.363,4.949-3.363,8.121v24.609c0,0.902-0.322,1.675-0.964,2.317
		c-0.643,0.643-1.415,0.964-2.317,0.964s-1.675-0.321-2.317-0.964c-0.643-0.642-0.964-1.415-0.964-2.317v-24.609
		c0-3.172-1.122-5.879-3.363-8.121c-2.242-2.242-4.949-3.363-8.121-3.363c-3.172,0-5.879,1.122-8.121,3.363
		c-2.242,2.242-3.363,4.949-3.363,8.121V286.578z"/>
	<path fill="#262626" d="M148.585,286.537l-15.75-37.816c-0.246-0.465-0.369-0.97-0.369-1.518c0-0.902,0.321-1.675,0.964-2.317
		c0.642-0.642,1.415-0.964,2.317-0.964s1.682,0.314,2.338,0.943c0.355,0.383,0.615,0.793,0.779,1.23l13.289,31.869l13.289-31.869
		c0.164-0.437,0.437-0.847,0.82-1.23c0.629-0.629,1.395-0.943,2.297-0.943s1.675,0.322,2.317,0.964
		c0.642,0.643,0.964,1.415,0.964,2.317c0,0.547-0.123,1.053-0.369,1.518l-24.445,58.652c-0.164,0.437-0.424,0.834-0.779,1.189
		c-0.656,0.656-1.436,0.984-2.338,0.984s-1.675-0.322-2.317-0.964c-0.643-0.643-0.964-1.415-0.964-2.317
		c0-0.547,0.123-1.053,0.369-1.518L148.585,286.537z"/>
</g>
<g>
	<path fill="#262626" d="M213.476,339.374v-93.527c0-0.988,0.179-1.92,0.539-2.796c0.359-0.876,0.864-1.639,1.516-2.291
		c0.651-0.651,1.403-1.156,2.257-1.516c0.853-0.359,1.796-0.539,2.83-0.539h20.754c3.234,0,6.368,0.427,9.4,1.28
		c3.032,0.854,5.873,2.067,8.524,3.639c2.65,1.573,5.076,3.448,7.277,5.626c2.201,2.179,4.077,4.594,5.626,7.244
		c1.55,2.651,2.763,5.492,3.639,8.524s1.314,6.166,1.314,9.4c0,9.793-3.527,18.216-10.579,25.269
		c-6.963,6.963-15.363,10.444-25.201,10.444h-13.611v29.244c0,1.977-0.697,3.662-2.089,5.054c-1.393,1.393-3.078,2.089-5.054,2.089
		c-1.977,0-3.662-0.696-5.054-2.089C214.171,343.035,213.476,341.351,213.476,339.374z M227.761,252.989v42.855h13.611
		c2.919,0,5.671-0.561,8.254-1.685c2.583-1.123,4.852-2.65,6.806-4.582c1.954-1.931,3.504-4.2,4.649-6.806
		c1.146-2.605,1.718-5.391,1.718-8.355c0-3.009-0.573-5.817-1.718-8.423c-1.146-2.605-2.695-4.874-4.649-6.806
		c-1.954-1.931-4.234-3.447-6.839-4.548c-2.606-1.1-5.346-1.651-8.221-1.651H227.761z"/>
	<path fill="#262626" d="M286.316,339.374v-93.527c0-0.988,0.179-1.92,0.539-2.796c0.359-0.876,0.864-1.639,1.516-2.291
		c0.651-0.651,1.403-1.156,2.257-1.516c0.853-0.359,1.796-0.539,2.83-0.539h26.01c4.537,0,8.815,0.876,12.836,2.628
		c4.02,1.752,7.524,4.133,10.512,7.143c2.986,3.01,5.356,6.525,7.108,10.545c1.752,4.021,2.628,8.3,2.628,12.836
		c0,2.965-0.371,5.852-1.111,8.659c-0.742,2.808-1.843,5.458-3.303,7.951s-3.279,4.807-5.457,6.94
		c-2.18,2.134-4.707,4.009-7.581,5.626l21.495,34.433c0.764,1.258,1.146,2.561,1.146,3.908c0,1.034-0.18,1.977-0.539,2.83
		c-0.36,0.854-0.865,1.606-1.517,2.257c-0.651,0.652-1.414,1.157-2.291,1.516c-0.875,0.36-1.809,0.539-2.796,0.539
		c-2.517,0-4.56-1.167-6.132-3.504l-23.786-38.071h-20.08v34.433c0,1.977-0.697,3.662-2.089,5.054
		c-1.393,1.393-3.078,2.089-5.054,2.089c-1.977,0-3.662-0.696-5.054-2.089C287.012,343.035,286.316,341.351,286.316,339.374z
		 M300.602,252.989v37.667h18.867c2.605,0,5.054-0.494,7.345-1.482c2.291-0.988,4.279-2.347,5.963-4.077
		c1.685-1.729,3.021-3.728,4.009-5.997c0.987-2.268,1.482-4.683,1.482-7.244c0-2.605-0.495-5.054-1.482-7.345
		c-0.989-2.291-2.336-4.29-4.043-5.997c-1.708-1.707-3.706-3.054-5.997-4.043c-2.291-0.988-4.717-1.482-7.277-1.482H300.602z"/>
	<path fill="#262626" d="M469.805,292.61c0,14.87-5.279,27.583-15.834,38.139c-10.512,10.512-23.203,15.768-38.072,15.768
		c-14.914,0-27.627-5.256-38.139-15.768c-10.511-10.512-15.767-23.224-15.767-38.139c0-14.869,5.256-27.56,15.767-38.071
		c10.557-10.556,23.27-15.835,38.139-15.835c14.824,0,27.516,5.279,38.072,15.835c5.299,5.301,9.264,11.096,11.893,17.385
		C468.491,278.213,469.805,285.108,469.805,292.61z M415.899,252.989c-5.57,0-10.658,0.966-15.262,2.897
		c-4.605,1.932-8.861,4.852-12.77,8.76s-6.816,8.153-8.727,12.735c-1.908,4.582-2.863,9.659-2.863,15.229
		c0,10.961,3.863,20.305,11.59,28.031c7.727,7.727,17.07,11.59,28.031,11.59s20.305-3.863,28.031-11.59
		c7.727-7.726,11.59-17.07,11.59-28.031c0-10.916-3.863-20.237-11.59-27.964C436.159,256.875,426.815,252.989,415.899,252.989z"/>
	<path fill="#262626" d="M563.333,322.258c0.988,0,1.91,0.191,2.764,0.573c0.852,0.382,1.605,0.888,2.256,1.516
		c0.652,0.629,1.168,1.381,1.551,2.257c0.381,0.876,0.572,1.809,0.572,2.796c0,1.887-0.74,3.594-2.223,5.121
		c-10.018,7.997-21.316,11.994-33.895,11.994c-14.914,0-27.627-5.256-38.139-15.768s-15.768-23.224-15.768-38.139
		c0-14.869,5.256-27.56,15.768-38.071c10.557-10.556,23.27-15.835,38.139-15.835c12.758,0,24.281,4.201,34.568,12.601
		c1.256,1.213,1.887,2.853,1.887,4.919c0,1.034-0.18,1.977-0.539,2.83c-0.361,0.854-0.865,1.606-1.518,2.257
		c-0.65,0.652-1.414,1.157-2.291,1.516c-0.875,0.36-1.809,0.539-2.795,0.539c-1.752,0-3.393-0.674-4.92-2.021
		c-3.414-2.695-7.176-4.761-11.287-6.199c-4.109-1.437-8.479-2.156-13.105-2.156c-10.961,0-20.326,3.886-28.098,11.657
		c-7.682,7.682-11.523,17.003-11.523,27.964c0,11.006,3.842,20.35,11.523,28.031c7.725,7.727,17.092,11.59,28.098,11.59
		c9.389,0,17.654-2.897,24.797-8.692C560.323,322.73,561.715,322.304,563.333,322.258z"/>
	<path fill="#262626" d="M652.276,332.231c1.977,0,3.66,0.697,5.053,2.089c1.393,1.393,2.09,3.078,2.09,5.054
		c0,1.977-0.697,3.662-2.09,5.054c-1.393,1.393-3.076,2.089-5.053,2.089h-62.33c-1.033,0-1.977-0.179-2.83-0.539
		c-0.854-0.359-1.605-0.864-2.258-1.516c-0.65-0.651-1.156-1.403-1.516-2.257c-0.359-0.853-0.539-1.796-0.539-2.83v-93.527
		c0-0.988,0.18-1.92,0.539-2.796s0.865-1.639,1.516-2.291c0.652-0.651,1.404-1.156,2.258-1.516c0.854-0.359,1.797-0.539,2.83-0.539
		h62.33c1.977,0,3.66,0.697,5.053,2.089c1.393,1.393,2.09,3.078,2.09,5.054c0,1.977-0.697,3.662-2.09,5.054
		c-1.393,1.393-3.076,2.089-5.053,2.089h-55.188v32.479h39.621c1.977,0,3.662,0.697,5.055,2.089
		c1.391,1.393,2.088,3.078,2.088,5.054c0,1.977-0.697,3.662-2.088,5.054c-1.393,1.393-3.078,2.089-5.055,2.089h-39.621v32.479
		H652.276z"/>
	<path fill="#262626" d="M680.243,286.545c-3.326-3.054-5.65-6.188-6.975-9.4c-1.326-3.211-1.988-6.614-1.988-10.208
		c0-4.402,0.832-8.389,2.494-11.96c1.66-3.571,4.109-6.749,7.344-9.535h-0.066c5.164-4.492,11.229-6.738,18.193-6.738
		c2.246,0,4.49,0.281,6.738,0.842c2.246,0.562,4.412,1.415,6.502,2.561c2.088,1.146,4.043,2.572,5.861,4.279
		c1.82,1.708,3.447,3.706,4.887,5.997c0.674,1.168,1.01,2.449,1.01,3.841c0,1.034-0.18,1.977-0.539,2.83
		c-0.359,0.854-0.865,1.606-1.516,2.257c-0.652,0.652-1.416,1.157-2.291,1.516c-0.877,0.36-1.809,0.539-2.797,0.539
		c-0.898,0-1.695-0.135-2.393-0.404c-0.695-0.27-1.324-0.651-1.887-1.146c-0.561-0.494-1.1-1.066-1.617-1.718
		c-0.516-0.651-1.066-1.403-1.65-2.257c-1.078-1.572-2.549-2.751-4.414-3.538c-1.863-0.786-3.873-1.179-6.029-1.179
		c-1.709,0-3.369,0.349-4.986,1.044c-1.617,0.697-3.057,1.651-4.312,2.864c-1.258,1.213-2.281,2.651-3.066,4.312
		c-0.787,1.663-1.18,3.459-1.18,5.391c0,3.459,0.955,6.188,2.863,8.187c1.91,2,5.199,3.672,9.873,5.02
		c7.906,2.247,14.105,5.346,18.598,9.299c4.49,3.954,7.547,7.839,9.164,11.657c1.617,3.819,2.426,7.839,2.426,12.062
		c0,10.512-3.887,19.047-11.658,25.605h0.068c-6.244,5.301-13.342,7.951-21.293,7.951c-2.652,0-5.301-0.325-7.951-0.977
		c-2.652-0.651-5.201-1.605-7.648-2.864c-2.449-1.257-4.74-2.83-6.873-4.717c-2.135-1.887-3.986-4.02-5.559-6.401
		c-0.943-1.213-1.416-2.65-1.416-4.312c0-0.988,0.18-1.92,0.539-2.796s0.865-1.639,1.516-2.291c0.652-0.651,1.404-1.156,2.258-1.516
		c0.854-0.359,1.797-0.539,2.83-0.539c2.65,0,4.65,1.101,5.998,3.302c1.887,2.92,4.244,5.121,7.074,6.604s5.885,2.224,9.164,2.224
		c2.561,0,4.975-0.505,7.244-1.516c2.268-1.011,4.244-2.369,5.93-4.077c1.684-1.707,3.021-3.717,4.01-6.031
		c0.986-2.313,1.482-4.772,1.482-7.378c0-2.47-0.461-4.795-1.383-6.974c-0.92-2.178-2.695-4.334-5.322-6.469
		c-2.629-2.133-6.795-4.054-12.5-5.761C688.485,292.094,683.567,289.601,680.243,286.545z"/>
	<path fill="#262626" d="M751.667,286.545c-3.324-3.054-5.648-6.188-6.973-9.4c-1.326-3.211-1.988-6.614-1.988-10.208
		c0-4.402,0.83-8.389,2.492-11.96s4.111-6.749,7.346-9.535h-0.068c5.166-4.492,11.23-6.738,18.193-6.738
		c2.246,0,4.492,0.281,6.738,0.842c2.246,0.562,4.414,1.415,6.504,2.561c2.088,1.146,4.043,2.572,5.861,4.279
		c1.82,1.708,3.447,3.706,4.885,5.997c0.674,1.168,1.012,2.449,1.012,3.841c0,1.034-0.18,1.977-0.539,2.83
		c-0.361,0.854-0.865,1.606-1.516,2.257c-0.652,0.652-1.416,1.157-2.291,1.516c-0.877,0.36-1.811,0.539-2.797,0.539
		c-0.9,0-1.697-0.135-2.393-0.404c-0.697-0.27-1.326-0.651-1.887-1.146c-0.562-0.494-1.102-1.066-1.617-1.718
		c-0.518-0.651-1.068-1.403-1.65-2.257c-1.078-1.572-2.551-2.751-4.414-3.538c-1.865-0.786-3.875-1.179-6.031-1.179
		c-1.707,0-3.369,0.349-4.986,1.044c-1.617,0.697-3.055,1.651-4.312,2.864s-2.279,2.651-3.064,4.312
		c-0.787,1.663-1.18,3.459-1.18,5.391c0,3.459,0.953,6.188,2.863,8.187c1.908,2,5.199,3.672,9.871,5.02
		c7.906,2.247,14.105,5.346,18.598,9.299c4.492,3.954,7.547,7.839,9.164,11.657c1.617,3.819,2.426,7.839,2.426,12.062
		c0,10.512-3.885,19.047-11.656,25.605h0.066c-6.244,5.301-13.342,7.951-21.293,7.951c-2.65,0-5.301-0.325-7.951-0.977
		c-2.65-0.651-5.199-1.605-7.646-2.864c-2.449-1.257-4.74-2.83-6.873-4.717c-2.135-1.887-3.988-4.02-5.561-6.401
		c-0.943-1.213-1.414-2.65-1.414-4.312c0-0.988,0.178-1.92,0.539-2.796c0.359-0.876,0.863-1.639,1.516-2.291
		c0.65-0.651,1.404-1.156,2.258-1.516c0.852-0.359,1.795-0.539,2.83-0.539c2.65,0,4.648,1.101,5.996,3.302
		c1.887,2.92,4.246,5.121,7.076,6.604s5.885,2.224,9.164,2.224c2.561,0,4.975-0.505,7.244-1.516c2.268-1.011,4.244-2.369,5.93-4.077
		c1.684-1.707,3.02-3.717,4.008-6.031c0.988-2.313,1.482-4.772,1.482-7.378c0-2.47-0.461-4.795-1.381-6.974
		c-0.922-2.178-2.695-4.334-5.322-6.469c-2.629-2.133-6.797-4.054-12.5-5.761C759.911,292.094,754.991,289.601,751.667,286.545z"/>
</g>
</svg>
