<?xml version="1.0" encoding="utf-8"?>
<!-- Generator: Adobe Illustrator 16.0.0, SVG Export Plug-In . SVG Version: 6.00 Build 0)  -->
<!DOCTYPE svg PUBLIC "-//W3C//DTD SVG 1.1//EN" "http://www.w3.org/Graphics/SVG/1.1/DTD/svg11.dtd">
<svg version="1.1" id="Layer_1" xmlns="http://www.w3.org/2000/svg" xmlns:xlink="http://www.w3.org/1999/xlink" x="0px" y="0px"
	 width="38px" height="78px" viewBox="0 -20 38 78" enable-background="new 0 -20 38 78" xml:space="preserve">
<path d="M19-19C8.669-19,0.294-10.625,0.294-0.294c0,10.33,8.375,18.705,18.706,18.705s18.705-8.375,18.705-18.705
	C37.705-10.625,29.331-19,19-19z M25.451-8.784c-0.504-0.155-1.023-0.271-1.799-0.271C21.714-9.055,21-7.543,21-5.683v0.389h4v4h-4
	v15h-6v-15h-3v-4h3v-0.157c0-2.286,0.653-4.806,2.358-6.355c1.473-1.396,3.503-1.899,5.208-1.899c1.317,0,2.314,0.155,3.129,0.388
	L25.451-8.784z"/>
<path fill="#3665CE" d="M19,19.999c-10.331,0-18.706,8.375-18.706,18.707c0,10.33,8.375,18.705,18.706,18.705
	s18.705-8.375,18.705-18.705C37.705,28.374,29.331,19.999,19,19.999z M25.451,30.216c-0.504-0.155-1.023-0.271-1.799-0.271
	c-1.938,0-2.652,1.512-2.652,3.372v0.39h4v4h-4v15h-6v-15h-3v-4h3v-0.158c0-2.285,0.653-4.805,2.358-6.354
	c1.473-1.396,3.503-1.899,5.208-1.899c1.317,0,2.314,0.156,3.129,0.389L25.451,30.216z"/>
<line fill="none" x1="19" y1="-0.294" x2="19" y2="38.705"/>
</svg>
