<?xml version="1.0" encoding="utf-8"?>
<!-- Generator: Adobe Illustrator 16.0.0, SVG Export Plug-In . SVG Version: 6.00 Build 0)  -->
<!DOCTYPE svg PUBLIC "-//W3C//DTD SVG 1.1//EN" "http://www.w3.org/Graphics/SVG/1.1/DTD/svg11.dtd">
<svg version="1.1" xmlns="http://www.w3.org/2000/svg" xmlns:xlink="http://www.w3.org/1999/xlink" x="0px" y="0px"
	 width="774.077px" height="1950.123px" viewBox="0 0 774.077 1950.123" enable-background="new 0 0 774.077 1950.123"
	 xml:space="preserve">
<g id="Layer_1">
	<rect x="52.627" y="751.722" fill="none" stroke="#353535" stroke-width="5" stroke-miterlimit="10" width="666" height="339"/>
	<rect x="50.627" y="1397.722" fill="none" stroke="#353535" stroke-width="5" stroke-miterlimit="10" width="666" height="339"/>
	
		<line fill="none" stroke="#8E8E8E" stroke-width="5" stroke-miterlimit="10" x1="52.627" y1="751.722" x2="197.627" y2="1090.722"/>
	
		<line fill="none" stroke="#8E8E8E" stroke-width="5" stroke-miterlimit="10" x1="197.627" y1="751.722" x2="52.627" y2="1090.722"/>
	<rect x="52.627" y="751.722" fill="none" stroke="#353535" stroke-width="5" stroke-miterlimit="10" width="238" height="339"/>
	<rect x="197.627" y="751.722" fill="none" stroke="#353535" stroke-width="5" stroke-miterlimit="10" width="93" height="339"/>
	<text transform="matrix(1 0 0 1 223.0312 832.2222)"><tspan x="0" y="0" font-family="'MyriadPro-Regular'" font-size="16">HOME </tspan><tspan x="9.336" y="23" font-family="'MyriadPro-Regular'" font-size="16">BIO </tspan><tspan x="-9.088" y="46" font-family="'MyriadPro-Regular'" font-size="16">GALLERY </tspan><tspan x="-11.808" y="69" font-family="'MyriadPro-Regular'" font-size="16">CONTACT</tspan></text>
	<circle fill="none" stroke="#000000" stroke-miterlimit="10" cx="244.127" cy="935.251" r="11"/>
	<circle fill="none" stroke="#000000" stroke-miterlimit="10" cx="244.127" cy="969.222" r="11"/>
	<text transform="matrix(1 0 0 1 480.168 850.2222)" font-family="'MyriadPro-Regular'" font-size="16">ABOUT ME</text>
	
		<line fill="none" stroke="#494949" stroke-width="6" stroke-miterlimit="10" x1="416.127" y1="893.222" x2="616.127" y2="893.222"/>
	
		<line fill="none" stroke="#494949" stroke-width="6" stroke-miterlimit="10" x1="416.127" y1="913.222" x2="616.127" y2="913.222"/>
	
		<line fill="none" stroke="#494949" stroke-width="6" stroke-miterlimit="10" x1="416.127" y1="933.222" x2="616.127" y2="933.222"/>
	
		<line fill="none" stroke="#494949" stroke-width="6" stroke-miterlimit="10" x1="416.127" y1="953.222" x2="616.127" y2="953.222"/>
	
		<line fill="none" stroke="#494949" stroke-width="6" stroke-miterlimit="10" x1="416.127" y1="973.222" x2="616.127" y2="973.222"/>
	
		<image overflow="visible" width="2880" height="1464" xlink:href="../../../../Desktop/Screen Shot 2015-05-12 at 8.49.00 PM.png"  transform="matrix(0.2283 0 0 0.2283 53.1162 1399.564)">
	</image>
	<text transform="matrix(1 0 0 1 266.0088 545.2212)" font-family="'MyriadPro-Regular'" font-size="34">It starts out as a sketch</text>
	<text transform="matrix(1 0 0 1 270.0088 1161.7173)"><tspan x="0" y="0" font-family="'MyriadPro-Regular'" font-size="34">And then becomes a  </tspan><tspan x="0" y="39" font-family="'MyriadPro-Regular'" font-size="34">mockup or wireframe</tspan></text>
	<circle fill="none" stroke="#000000" stroke-width="3" stroke-miterlimit="10" cx="212.479" cy="536.221" r="38.245"/>
	<text transform="matrix(1 0 0 1 208.376 551.7212)" font-family="'DolceVitaHeavy-Bold'" font-size="50">1</text>
	<circle fill="none" stroke="#000000" stroke-width="3" stroke-miterlimit="10" cx="197.479" cy="1172.221" r="38.245"/>
	<text transform="matrix(1 0 0 1 187.834 1187.7212)" font-family="'DolceVitaHeavy-Bold'" font-size="50">2</text>
	<text transform="matrix(1 0 0 1 264.0088 1807.7173)"><tspan x="0" y="0" font-family="'MyriadPro-Regular'" font-size="34">Lastly, it is launched to the  </tspan><tspan x="0" y="39" font-family="'MyriadPro-Regular'" font-size="34">interwebs!</tspan></text>
	<circle fill="none" stroke="#000000" stroke-width="3" stroke-miterlimit="10" cx="191.479" cy="1818.221" r="38.245"/>
	<text transform="matrix(1 0 0 1 181.627 1833.7212)" font-family="'DolceVitaHeavy-Bold'" font-size="50">3</text>
</g>
<g id="Layer_2">
	<g>
		<g>
			<path fill="#353535" d="M94.258,127.198c28.559,5.7,57.693,0.615,86.468,0.08c32.702-0.608,65.413-0.012,98.12-0.848
				c65.572-1.676,130.66-10.302,196.213-12.674c32.619-1.18,65.295-1.073,97.88,0.918c16.241,0.993,32.386,2.311,48.653,2.901
				c16.814,0.609,33.633,1.42,50.312,3.741c1.891,0.263,2.706-2.627,0.797-2.893c-15.66-2.179-31.42-3.087-47.209-3.703
				c-16.27-0.635-32.422-1.681-48.661-2.794c-32.559-2.231-65.238-2.337-97.846-1.304c-65.566,2.077-130.645,10.807-196.2,12.7
				c-32.896,0.95-65.811,0.93-98.717,0.93c-29.633,0-59.595,5.925-89.014,0.054C93.166,123.928,92.361,126.819,94.258,127.198
				L94.258,127.198z"/>
		</g>
	</g>
	<g>
		<g>
			<path fill="#353535" d="M670.803,119.869c1.355,58.451-0.687,116.945,2.571,175.342c1.571,28.175,3.031,56.395,1.934,84.616
				c-0.564,14.511-1.838,28.961-4.82,43.176c-2.793,13.316-4.558,26.832-5.566,40.395c1,0,2,0,3,0c0-1.569,0-3.137,0-4.706
				c0-1.935-3-1.935-3,0c0,1.569,0,3.137,0,4.706c0,1.956,2.858,1.907,3,0c1.035-13.917,2.966-27.706,5.83-41.365
				c2.782-13.265,3.833-26.822,4.477-40.351c1.342-28.191-0.189-56.453-1.75-84.602c-3.271-59.03-1.305-118.131-2.675-177.213
				C673.758,117.938,670.758,117.934,670.803,119.869L670.803,119.869z"/>
		</g>
	</g>
	<g>
		<g>
			<path fill="#353535" d="M92.033,122.621c8.88,23.743,4.967,50.846,5.902,75.668c1.151,30.538,0.583,60.913-1.532,91.393
				c-2.16,31.121-0.467,62.362,1.466,93.446c0.905,14.566,1.507,29.176,2.561,43.728c0.76,10.486,4.343,23.726-1.186,33.434
				c-0.959,1.684,1.633,3.194,2.59,1.514c5.007-8.792,3.088-20.126,2.095-29.688c-1.486-14.305-1.785-28.791-2.692-43.147
				c-2.049-32.404-3.897-64.865-1.96-97.323c1.862-31.192,2.789-62.104,1.659-93.355c-0.906-25.08,2.967-52.466-6.01-76.466
				C94.255,120.029,91.354,120.805,92.033,122.621L92.033,122.621z"/>
		</g>
	</g>
	<g>
		<g>
			<path fill="#353535" d="M100.539,462.545c32.919-0.703,65.778-2.885,98.672-4.235c32.945-1.352,65.731-0.577,98.677,0.094
				c66.025,1.344,132.064,1.79,198.096,2.781c58.765,0.882,117.545,2.5,176.319,2.536c0-1,0-2,0-3c-1.177,0-2.353,0-3.529,0
				c-1.935,0-1.935,3,0,3c1.177,0,2.353,0,3.529,0c1.935,0,1.935-2.999,0-3c-66.063-0.041-132.131-1.95-198.187-2.849
				c-65.961-0.897-131.93-1.404-197.881-2.94c-29.013-0.676-57.864-0.5-86.863,0.8c-29.609,1.328-59.195,3.179-88.833,3.812
				C98.607,459.586,98.604,462.587,100.539,462.545L100.539,462.545z"/>
		</g>
	</g>
	<g>
		<g>
			<path fill="#353535" d="M308.504,123.797c4.03,28.233,3.773,56.785,3.521,85.235c-0.121,13.633-0.206,27.267,0.168,40.897
				c0.394,14.335,1.729,28.62,2.307,42.948c1.137,28.168,0.601,56.373,0.646,84.555c0.042,25.916-1.181,53.024,6.299,78.13
				c0.551,1.849,3.446,1.061,2.893-0.798c-7.579-25.44-6.152-53.037-6.194-79.299c-0.046-28.188,0.414-56.38-0.723-84.555
				c-0.552-13.674-1.803-27.301-2.228-40.981c-0.442-14.277-0.277-28.569-0.151-42.85c0.249-28.084,0.332-56.214-3.646-84.08
				C311.124,121.091,308.233,121.906,308.504,123.797L308.504,123.797z"/>
		</g>
	</g>
	<g>
		<g>
			<path fill="#353535" d="M243.648,128.224c-1.257,0.621-1.064-0.904-0.84,0.828c0.087,0.667,0.091,1.346,0.107,2.017
				c0.045,1.741-0.074,3.49-0.19,5.227c-0.271,4.048-0.787,8.085-1.413,12.092c-1.775,11.371-2.807,22.477-2.484,34.046
				c0.441,15.81,2.587,31.568,4.137,47.294c1.629,16.529,2.733,33.107,3.521,49.696c1.571,33.103,1.613,66.262,1.14,99.392
				c-0.188,13.126-0.064,26.129,0.249,39.245c0.269,11.27,0.364,24.333-6.277,33.994c-1.1,1.599,1.502,3.097,2.59,1.514
				c5.909-8.594,6.591-19.688,6.729-29.796c0.168-12.341-0.634-24.651-0.418-37.005c0.58-33.13,0.617-66.277-0.67-99.392
				c-1.268-32.647-5.503-64.944-7.643-97.505c-0.862-13.123-0.557-26.178,1.759-39.119c1.253-6.996,2.479-14.584,1.864-21.698
				c-0.176-2.039-1.186-4.648-3.674-3.419C240.4,126.49,241.921,129.077,243.648,128.224L243.648,128.224z"/>
		</g>
	</g>
	<g>
		<g>
			<path fill="#353535" d="M226.098,150.458c-2.347,21.547-10.731,41.75-17.676,62.099c-7.395,21.667-15.326,43.152-22.685,64.837
				c-7.229,21.307-13.474,43.076-22.956,63.522c-8.558,18.455-18.888,36.028-27.066,54.667c-0.77,1.753,1.814,3.282,2.59,1.514
				c8.178-18.635,18.411-36.26,27.067-54.666c9.422-20.034,15.547-41.44,22.625-62.37c7.547-22.314,15.801-44.388,23.317-66.706
				c6.968-20.686,15.4-41.017,17.783-62.896C229.307,148.536,226.305,148.556,226.098,150.458L226.098,150.458z"/>
		</g>
	</g>
	<g>
		<g>
			<path fill="#353535" d="M112.185,167.685c19.229,34.59,39.022,68.888,56.74,104.292c18.193,36.354,32.197,74.607,50.319,111.002
				c0.862,1.732,3.449,0.212,2.59-1.514c-17.839-35.828-31.708-73.443-49.471-109.299c-17.854-36.04-38.054-70.857-57.589-105.995
				C113.835,164.48,111.243,165.993,112.185,167.685L112.185,167.685z"/>
		</g>
	</g>
	<g>
		<g>
			<path fill="#353535" d="M260.657,178.273c-1.557,2.62-2.437-1.405-2.088,0.367c0.102,0.515,0.128,1.048,0.173,1.571
				c0.12,1.43,0.164,2.868,0.208,4.302c0.073,2.373,0.088,4.748,0.088,7.122c0,1.935,3,1.935,3,0c0-3.807-0.017-7.625-0.296-11.423
				c-0.093-1.257-0.093-2.859-0.913-3.893c-0.81-1.018-2.192-0.517-2.762,0.441C257.076,178.426,259.67,179.934,260.657,178.273
				L260.657,178.273z"/>
		</g>
	</g>
	<g>
		<g>
			<path fill="#353535" d="M263.949,178.273c2.276,3.877,1.028,9.093,0.972,13.361c-0.026,1.936,2.974,1.933,3,0
				c0.065-4.92,1.248-10.396-1.382-14.875C265.561,175.092,262.967,176.601,263.949,178.273L263.949,178.273z"/>
		</g>
	</g>
	<g>
		<g>
			<path fill="#353535" d="M261.831,184.459c1.894,1.687,4.552,1.615,6.942,1.616c1.935,0.001,1.935-2.999,0-3
				c-1.41-0.001-3.672,0.286-4.821-0.737C262.513,181.056,260.384,183.169,261.831,184.459L261.831,184.459z"/>
		</g>
	</g>
	<g>
		<g>
			<path fill="#353535" d="M273.596,181.162c-1.41,1.421-2.984,3.246-3.269,5.312c-0.234,1.71,0.347,3.186,1.777,4.18
				c2.346,1.632,6.108,0.916,7.995-1.088c1.52-1.613,1.732-3.893,1.087-5.943c-0.212-0.674-0.513-1.328-0.845-1.95
				c-0.445-0.835-1.074-2.147-2.156-2.127c-1.127,0.021-2.193,0.249-3.066,0.995c-0.684,0.583-1.011,1.267-1.523,1.797
				c-1.344,1.391,0.774,3.515,2.121,2.121c0.281-0.291,0.529-0.604,0.772-0.927c0.089-0.119,0.178-0.238,0.265-0.357
				c0.274-0.375-0.18,0.21,0.105-0.136c0.086-0.104,0.181-0.197,0.278-0.29c-0.216,0.206,0.102-0.057,0.148-0.083
				c-0.229,0.13,0.227-0.064,0.243-0.069c0.214-0.057,0.436-0.048,0.656-0.052c-0.432-0.248-0.863-0.495-1.295-0.743
				c0.336,0.485,0.647,0.984,0.925,1.505c0.122,0.228,0.231,0.463,0.336,0.699c-0.146-0.331,0.009,0.035,0.029,0.089
				c0.054,0.142,0.101,0.287,0.146,0.432c0.064,0.203,0.114,0.41,0.159,0.619c0.021,0.098,0.037,0.197,0.054,0.296
				c-0.072-0.441-0.017-0.114-0.008-0.017c0.017,0.181,0.019,0.362,0.016,0.543c-0.001,0.086-0.008,0.172-0.015,0.258
				c-0.021,0.276,0.07-0.396-0.003,0.014c-0.027,0.157-0.069,0.311-0.116,0.463c-0.143,0.463,0.108-0.19-0.048,0.138
				c-0.063,0.134-0.14,0.263-0.219,0.389c-0.252,0.399,0.188-0.192-0.12,0.161c-0.096,0.109-0.2,0.211-0.307,0.309
				c-0.347,0.318,0.2-0.129-0.094,0.083c-0.257,0.185-0.537,0.336-0.824,0.467c0.491-0.223,0.004-0.008-0.121,0.035
				c-0.14,0.047-0.281,0.086-0.424,0.123c-0.142,0.036-0.286,0.064-0.431,0.089c-0.112,0.02-0.398,0.049,0.109-0.013
				c-0.097,0.012-0.192,0.019-0.289,0.026c-0.286,0.021-0.572,0.014-0.857-0.01c-0.373-0.032,0.386,0.072-0.083-0.014
				c-0.155-0.029-0.309-0.068-0.46-0.113c-0.13-0.038-0.594-0.227-0.074-0.006c-0.117-0.05-0.231-0.109-0.343-0.171
				c-0.108-0.061-0.212-0.131-0.312-0.204c0.45,0.327,0.046,0.021-0.06-0.088c-0.3-0.313,0.163,0.254-0.025-0.026
				c-0.067-0.101-0.123-0.208-0.175-0.318c0.234,0.501,0.048,0.092,0.01-0.054c-0.113-0.442,0.006,0.345-0.018-0.126
				c-0.007-0.144,0.002-0.289,0.016-0.432c-0.052,0.557,0.026-0.076,0.066-0.227c0.046-0.172,0.106-0.34,0.171-0.507
				c-0.168,0.435,0.126-0.245,0.191-0.367c0.107-0.199,0.228-0.391,0.35-0.581c0.065-0.103,0.136-0.203,0.205-0.303
				c0.032-0.045,0.351-0.468,0.156-0.219c0.403-0.516,0.851-0.997,1.312-1.461C277.08,181.909,274.959,179.787,273.596,181.162
				L273.596,181.162z"/>
		</g>
	</g>
	<g>
		<g>
			<path fill="#353535" d="M279.092,182.621c0.436,2.512,1.92,4.556,2.354,7.059c0.236,1.366,2.103,1.353,2.741,0.358
				c1.379-2.145,3.329-3.737,4.706-5.882c-0.914-0.12-1.827-0.239-2.741-0.358c0.315,1.217,0.86,2.311,1.176,3.53
				c0.284,1.098,1.718,1.451,2.507,0.662c1.177-1.176,2.354-2.353,3.529-3.53c-0.836-0.221-1.671-0.441-2.507-0.662
				c0.674,2.196,2.33,3.765,3.916,5.368c0.66,0.668,1.9,0.552,2.355-0.303c1.411-2.652,2.38-4.78,2.558-7.816c-1,0-2,0-3,0
				c0.572,7.174,7.116,8.457,13.265,8.559c1.936,0.032,1.933-2.968,0-3c-4.102-0.068-9.843-0.266-10.265-5.559
				c-0.153-1.92-2.887-1.944-3,0c-0.146,2.506-1.014,4.17-2.147,6.302c0.785-0.101,1.57-0.202,2.355-0.303
				c-1.134-1.147-2.659-2.461-3.145-4.044c-0.328-1.07-1.691-1.478-2.507-0.662c-1.177,1.177-2.353,2.353-3.529,3.53
				c0.836,0.221,1.671,0.441,2.507,0.662c-0.315-1.217-0.86-2.311-1.176-3.53c-0.338-1.305-2.06-1.419-2.741-0.358
				c-1.379,2.146-3.328,3.738-4.706,5.883c0.913,0.119,1.827,0.239,2.741,0.358c-0.436-2.512-1.92-4.556-2.354-7.059
				C281.654,179.92,278.764,180.729,279.092,182.621L279.092,182.621z"/>
		</g>
	</g>
	<g>
		<g>
			<path fill="#353535" d="M431.242,180.93c3.372,2.973-1.094,11.576-2.587,14.653c0.932,0.252,1.863,0.505,2.795,0.757
				c1.097-9.532,3.359-20.47,14.971-20.853c-0.354-0.854-0.707-1.707-1.061-2.561c-3.229,3.043-11.396,10.387-3.256,12.693
				c2.118,0.6,8.007,2.643,4.105,5.519c-3.619,2.668-8.765,2.488-12.311,5.082c-1.545,1.13-0.05,3.735,1.514,2.591
				c3.779-2.765,18.993-3.913,14.246-12.174c-1.268-2.205-3.488-3.046-5.836-3.669c-0.726-0.193-2.689-0.319-2.291-1.251
				c1.109-2.599,3.955-4.79,5.949-6.67c0.94-0.887,0.237-2.604-1.061-2.561c-13.479,0.445-16.664,12.498-17.971,23.853
				c-0.17,1.48,2.165,2.056,2.795,0.757c2.198-4.528,6.97-14.012,2.118-18.289C431.918,177.535,429.788,179.648,431.242,180.93
				L431.242,180.93z"/>
		</g>
	</g>
	<g>
		<g>
			<path fill="#353535" d="M459.478,187.989c1.023,1.149,0.736,3.412,0.737,4.822c0.001,1.935,3.001,1.935,3,0
				c-0.001-2.391,0.071-5.05-1.616-6.943C460.309,184.42,458.195,186.55,459.478,187.989L459.478,187.989z"/>
		</g>
	</g>
	<g>
		<g>
			<path fill="#353535" d="M462.892,173.134c1.935,0,1.935-3,0-3S460.957,173.134,462.892,173.134L462.892,173.134z"/>
		</g>
	</g>
	<g>
		<g>
			<path fill="#353535" d="M477.916,181.823c-0.562,3.098-0.767,7.405,2.383,9.233c3.174,1.842,7.567-1.697,9.636-3.826
				c1.879-1.934,1.768-4.4-0.013-6.315c-0.823-0.885-1.915-1.552-2.918-2.21c-0.409-0.269-0.833-0.53-1.214-0.838
				c0.042,0.034-0.376-0.352-0.315-0.271c-0.334-0.441-0.143,0.794,0.04,0.32c0.695-1.809-2.206-2.584-2.893-0.798
				c-1.137,2.956,4.147,4.454,5.463,6.239c1.3,1.764-3.015,3.947-4.08,4.59c-3.72,2.245-3.606-3.061-3.196-5.326
				C481.151,180.73,478.261,179.922,477.916,181.823L477.916,181.823z"/>
		</g>
	</g>
	<g>
		<g>
			<path fill="#353535" d="M398.186,233.134c10.905-0.03,21.803-0.512,32.708-0.522c10.373-0.01,20.655,1.235,31.017,1.396
				c9.999,0.155,19.984-1.601,29.953-0.76c10.036,0.846,19.813,3.648,29.852,4.593c1.927,0.181,1.909-2.82,0-3
				c-10.042-0.945-19.827-3.52-29.852-4.593c-9.891-1.059-20.014,0.812-29.953,0.76c-10.357-0.053-20.648-1.342-31.017-1.396
				c-10.904-0.057-21.804,0.492-32.708,0.522C396.251,230.139,396.251,233.139,398.186,233.134L398.186,233.134z"/>
		</g>
	</g>
	<g>
		<g>
			<path fill="#353535" d="M410.349,271.904c9.599-1.942,19.14-4.277,28.876-5.438c9.47-1.129,18.896,0.449,28.323-0.541
				c9.841-1.034,18.644-3.03,28.555-1.049c8.035,1.606,15.407,3.706,23.658,2.322c1.905-0.319,1.095-3.21-0.797-2.893
				c-9.515,1.595-18.091-2.203-27.392-3.233c-9.327-1.034-18.183,1.457-27.419,2.16c-4.855,0.369-9.771-0.374-14.639-0.385
				c-4.546-0.01-9.081,0.433-13.582,1.035c-8.878,1.189-17.61,3.355-26.381,5.129C407.656,269.395,408.46,272.286,410.349,271.904
				L410.349,271.904z"/>
		</g>
	</g>
	<g>
		<g>
			<path fill="#353535" d="M407.996,308.375c19.074-6.029,39.123-2.181,58.479-0.322c24.199,2.324,48.738-0.042,72.488,6.204
				c1.873,0.493,2.667-2.401,0.797-2.893c-23.954-6.3-48.839-4.202-73.285-6.312c-19.711-1.701-39.847-5.713-59.276,0.43
				C405.361,306.063,406.146,308.959,407.996,308.375L407.996,308.375z"/>
		</g>
	</g>
	<g>
		<g>
			<path fill="#353535" d="M259.092,207.327c1.13,4.53,2.196,9.028,2.3,13.718c0.043,1.931,3.031,1.937,3,0
				c-0.058-3.601-2.375-13.486,3.206-13.794c-0.432-0.752-0.863-1.505-1.295-2.257c-1.146,1.826-0.096,4.159-1.177,5.882
				c-0.626,0.999,0.198,2.22,1.295,2.257c3.555,0.121,3.984,1.811,2.44,4.659c-0.548,1.011-2.325,3.935-3.617,4.106
				c-1.889,0.251-1.913,3.254,0,3c3.405-0.453,5.914-4.647,7.104-7.502c1.918-4.6-1.733-7.121-5.927-7.263
				c0.432,0.752,0.863,1.505,1.295,2.257c1.146-1.826,0.097-4.159,1.177-5.883c0.586-0.933-0.167-2.319-1.295-2.257
				c-8.549,0.472-6.299,11.037-6.206,16.794c1,0,2,0,3,0c-0.109-4.958-1.212-9.724-2.407-14.516
				C261.517,204.653,258.623,205.449,259.092,207.327L259.092,207.327z"/>
		</g>
	</g>
	<g>
		<g>
			<path fill="#353535" d="M274.772,217.4c1.665,1.762,1.911,3.672,1.913,5.998c0.002,1.935,3.002,1.935,3,0
				c-0.003-3.14-0.574-5.773-2.792-8.119C275.562,213.871,273.444,215.996,274.772,217.4L274.772,217.4z"/>
		</g>
	</g>
	<g>
		<g>
			<path fill="#353535" d="M279.362,208.428c1.935,0,1.935-3,0-3S277.428,208.428,279.362,208.428L279.362,208.428z"/>
		</g>
	</g>
	<g>
		<g>
			<path fill="#353535" d="M284.921,212.811c-0.062,3.903-2.094,15.177,5.235,13.455c5.192-1.22,1.918-10.901-0.322-13.339
				c-1.312-1.428-3.428,0.7-2.121,2.121c0.806,0.877,3.576,8.184,1.443,8.366c-2.702,0.231-1.263-8.879-1.235-10.603
				C287.951,210.875,284.951,210.878,284.921,212.811L284.921,212.811z"/>
		</g>
	</g>
	<g>
		<g>
			<path fill="#353535" d="M262.127,234.222c-3.522-0.253-6.183,3.51-7.809,6.129c-1.887,3.037-3.011,6.404-1.484,9.831
				c1.142,2.562,4.111,3.633,6.715,3.132c3.285-0.632,4.683-4.1,4.578-7.092c-0.028-0.817-0.66-1.5-1.5-1.5c-0.167,0-0.333,0-0.5,0
				c0.5,0.5,1,1,1.5,1.5c0-0.333,0-0.667,0-1c0-0.811-0.683-1.51-1.5-1.5c-1.217,0.014-2.146,0.227-3.257,0.705
				c-1.772,0.763-0.243,3.347,1.514,2.591c0.562-0.246,1.142-0.344,1.743-0.295c-0.5-0.5-1-1-1.5-1.5c0,0.333,0,0.667,0,1
				c0,0.818,0.683,1.5,1.5,1.5c0.167,0,0.333,0,0.5,0c-0.5-0.5-1-1-1.5-1.5c0.064,1.838-0.414,3.676-2.375,4.199
				c-1.719,0.458-3.125-0.934-3.559-2.451c-0.611-2.14,0.67-4.335,1.715-6.105c0.987-1.671,2.949-4.806,5.219-4.643
				C264.059,237.361,264.045,234.36,262.127,234.222L262.127,234.222z"/>
		</g>
	</g>
	<g>
		<g>
			<path fill="#353535" d="M269.127,242.222c-2.971,0.166-5.188,2.9-5.946,5.601c-0.291,1.036,0.747,2.244,1.845,1.845
				c1.943-0.706,3.248-2.005,4.396-3.689c-0.932-0.252-1.863-0.504-2.795-0.757c0.002,1.645,0.038,3.231,0.705,4.757
				c0.772,1.77,3.356,0.241,2.59-1.514c-0.422-0.967-0.294-2.217-0.295-3.243c-0.002-1.565-1.981-1.95-2.795-0.757
				c-0.674,0.987-1.451,1.891-2.604,2.311c0.615,0.615,1.229,1.23,1.845,1.845c0.365-1.301,1.512-3.313,3.054-3.399
				C271.051,245.115,271.061,242.114,269.127,242.222L269.127,242.222z"/>
		</g>
	</g>
	<g>
		<g>
			<path fill="#353535" d="M270.681,240.121c0.921,2.604,0.476,5.396,0.446,8.101c-0.021,1.936,2.979,1.934,3,0
				c0.032-2.979,0.462-6.027-0.554-8.899C272.934,237.513,270.034,238.292,270.681,240.121L270.681,240.121z"/>
		</g>
	</g>
	<g>
		<g>
			<path fill="#353535" d="M274.181,239.121c1.019,2.81,1.019,6.392,0,9.202c-0.661,1.823,2.239,2.602,2.893,0.798
				c1.182-3.26,1.182-7.538,0-10.798C276.42,236.52,273.52,237.298,274.181,239.121L274.181,239.121z"/>
		</g>
	</g>
	<g>
		<g>
			<path fill="#353535" d="M277.627,246.722c3.487-0.202,6.605-3.273,5.446-6.899c-0.282-0.883-1.359-1.445-2.203-0.896
				c-3.927,2.555-5.692,10.575,0.757,10.795c1.936,0.066,1.93-2.934,0-3c-2.911-0.1-0.605-4.318,0.757-5.205
				c-0.734-0.299-1.469-0.598-2.203-0.896c0.538,1.683-0.928,3.007-2.554,3.101C275.704,243.833,275.693,246.834,277.627,246.722
				L277.627,246.722z"/>
		</g>
	</g>
	<g>
		<g>
			<path fill="#353535" d="M283.627,243.722c0.002,1.485,0.111,2.882,0.705,4.257c0.62,1.438,2.782,0.625,2.795-0.757
				c0.014-1.4,0.386-6.292,2.743-5.205c1.744,0.804,3.27-1.781,1.514-2.591c-5.217-2.406-7.219,3.701-7.257,7.795
				c0.932-0.252,1.863-0.505,2.795-0.757c-0.359-0.834-0.293-1.856-0.295-2.743C286.624,241.788,283.624,241.788,283.627,243.722
				L283.627,243.722z"/>
		</g>
	</g>
	<g>
		<g>
			<path fill="#353535" d="M291.229,242.668c1.146,0.407,1.996,1.274,2.838,2.114c1.369,1.369,3.491-0.752,2.121-2.121
				c-1.233-1.232-2.498-2.294-4.162-2.886c-0.771-0.274-1.64,0.303-1.845,1.047C289.951,241.655,290.459,242.395,291.229,242.668
				L291.229,242.668z"/>
		</g>
	</g>
	<g>
		<g>
			<path fill="#353535" d="M295.332,240.465c-2.104,3.778-3.636,7.818-5.151,11.858c-0.681,1.815,2.22,2.591,2.893,0.798
				c1.427-3.801,2.869-7.587,4.849-11.142C298.864,240.288,296.273,238.775,295.332,240.465L295.332,240.465z"/>
		</g>
	</g>
	<g>
		<g>
			<path fill="#353535" d="M261.922,262.479c0.515-0.731,0.672-1.369,0.705-2.257c0.029-0.795-0.705-1.529-1.5-1.5
				c-3.693,0.137-5.978,3.37-6.312,6.812c-0.423,4.352,3.448,6.246,7.211,5.634c1.906-0.31,1.095-3.2-0.797-2.893
				c-2.139,0.348-3.522-0.518-3.414-2.741c0.086-1.764,1.444-3.743,3.312-3.812c-0.5-0.5-1-1-1.5-1.5
				c-0.099,0.248-0.197,0.495-0.295,0.743C258.216,262.551,260.818,264.048,261.922,262.479L261.922,262.479z"/>
		</g>
	</g>
	<g>
		<g>
			<path fill="#353535" d="M271.37,260.427c-2.662,1.493-3.31,4.917-2.689,7.694c0.216,0.965,1.392,1.351,2.203,0.896
				c2.545-1.427,3.547-5.03,2.038-7.552c-0.463-0.774-1.721-1.061-2.355-0.304c-0.169,0.193-0.33,0.393-0.482,0.6
				c-0.276,0.364-0.229,0.369,0.145,0.015c-1.887,0.426-1.087,3.318,0.797,2.893c0.868-0.196,1.138-0.76,1.662-1.386
				c-0.785-0.101-1.57-0.202-2.355-0.304c0.687,1.149,0.179,2.808-0.962,3.448c0.734,0.299,1.469,0.598,2.203,0.896
				c-0.326-1.461-0.125-3.5,1.311-4.306C274.571,262.071,273.06,259.48,271.37,260.427L271.37,260.427z"/>
		</g>
	</g>
	<g>
		<g>
			<path fill="#353535" d="M273.127,261.722c0.053,1.024,0.448,1.988,0.5,3c0.064,1.249,1.617,2.061,2.561,1.061
				c0.698-0.74,1.229-1.584,1.711-2.475c0.402-0.745,0.777-1.771,1.485-2.29c-0.505,0-1.009,0-1.514,0
				c0.35,0.263,0.325,0.874,0.336,1.253c0.024,0.816-0.069,1.636-0.079,2.452c-0.023,1.936,2.977,1.933,3,0
				c0.028-2.392,0.398-4.684-1.743-6.295c-0.384-0.289-1.129-0.282-1.514,0c-1.862,1.364-2.281,3.621-3.804,5.235
				c0.854,0.354,1.707,0.707,2.561,1.061c-0.053-1.024-0.448-1.988-0.5-3C276.028,259.797,273.027,259.788,273.127,261.722
				L273.127,261.722z"/>
		</g>
	</g>
	<g>
		<g>
			<path fill="#353535" d="M281.681,258.121c0.436,2.517,0.121,5.052,1,7.5c0.648,1.807,3.548,1.028,2.893-0.798
				c-0.866-2.413-0.567-5.001-1-7.5C284.244,255.42,281.354,256.229,281.681,258.121L281.681,258.121z"/>
		</g>
	</g>
	<g>
		<g>
			<path fill="#353535" d="M282.025,263.168c1.785-0.545,3.686-0.575,5.5-1c1.884-0.441,1.085-3.333-0.797-2.893
				c-1.815,0.425-3.715,0.455-5.5,1C279.384,260.839,280.171,263.735,282.025,263.168L282.025,263.168z"/>
		</g>
	</g>
	<g>
		<g>
			<path fill="#353535" d="M289.87,256.927c-1.686,1.152-2.979,2.453-3.689,4.396c-0.488,1.336,1.133,2.232,2.203,1.694
				c1.475-0.741,2.585-1.685,3.538-3.039c-0.932-0.252-1.863-0.504-2.795-0.757c0.002,2.004,0.141,4.002,1.205,5.757
				c1.001,1.651,3.596,0.145,2.59-1.514c-0.786-1.297-0.793-2.769-0.795-4.243c-0.002-1.582-1.97-1.928-2.795-0.757
				c-0.655,0.93-1.464,1.46-2.462,1.961c0.734,0.565,1.469,1.129,2.203,1.694c0.422-1.154,1.321-1.928,2.311-2.604
				C292.971,258.433,291.472,255.832,289.87,256.927L289.87,256.927z"/>
		</g>
	</g>
	<g>
		<g>
			<path fill="#353535" d="M296.181,255.823c-0.706,2.688-2.155,6.271,0.386,8.459c0.561,0.483,1.589,0.676,2.121,0
				c0.515-0.653,0.863-1.218,0.939-2.061c0.175-1.927-2.826-1.91-3,0c-0.021-0.02-0.04-0.041-0.061-0.061c0.707,0,1.414,0,2.121,0
				c-1.42-1.224-0.001-4.067,0.386-5.541C299.565,254.748,296.672,253.954,296.181,255.823L296.181,255.823z"/>
		</g>
	</g>
	<g>
		<g>
			<path fill="#353535" d="M302.332,254.979c1.403,2.055,1.692,5.275,0.5,7.486c-0.919,1.702,1.671,3.217,2.59,1.514
				c1.678-3.109,1.508-7.575-0.5-10.514C303.838,251.878,301.237,253.377,302.332,254.979L302.332,254.979z"/>
		</g>
	</g>
	<g>
		<g>
			<path fill="#353535" d="M303.525,261.168c1.848-0.427,3.714-0.445,5.602-0.446c1.935-0.001,1.935-3.001,0-3
				c-2.155,0.001-4.29,0.066-6.398,0.554C300.844,258.711,301.643,261.604,303.525,261.168L303.525,261.168z"/>
		</g>
	</g>
	<g>
		<g>
			<path fill="#353535" d="M286.422,281.465c-1.963-4.562-6.557,0.092-8.087,2.35c-2.564,3.783-4.462,10.055-0.661,13.666
				c5.714,5.426,12.428-1.28,14.539-6.638c1.718-4.357-0.438-12.782-6.484-10.567c-1.801,0.66-1.023,3.56,0.797,2.893
				c4.052-1.484,3.353,5.719,2.4,7.8c-1.521,3.323-6.667,8.185-9.81,3.628c-1.537-2.229-0.083-5.78,0.988-7.876
				c0.627-1.228,1.431-2.35,2.399-3.327c0.313-0.315,0.696-0.638,1.117-0.799c0.115-0.044-0.024-0.161,0.211,0.385
				C284.595,284.752,287.179,283.222,286.422,281.465L286.422,281.465z"/>
		</g>
	</g>
	<g>
		<g>
			<path fill="#353535" d="M284.384,318.427c-3.793-1.993-5.866,3.583-6.444,6.309c-0.879,4.146-0.219,9.25,4.191,10.962
				c5.567,2.162,11.047-3.08,11.008-8.439c-0.042-5.785-5.123-10.806-10.91-9.983c-1.909,0.271-1.094,3.161,0.797,2.893
				c8.79-1.248,9.567,15.428-0.098,12.637c-5.038-1.455-0.442-11.99-0.058-11.788C284.581,321.917,286.098,319.327,284.384,318.427
				L284.384,318.427z"/>
		</g>
	</g>
	<g>
		<g>
			<path fill="#353535" d="M280.832,292.979c0.417,0.637,0.582,1.363,1,2c0.795,1.215,2.804,0.792,2.795-0.757
				c-0.022-4.153-0.979-9.459,4.5-10c1.906-0.188,1.925-3.19,0-3c-2.888,0.285-5.604,1.292-6.772,4.161
				c-1.125,2.765-0.743,5.927-0.728,8.839c0.932-0.252,1.863-0.505,2.795-0.757c-0.417-0.637-0.582-1.363-1-2
				C282.367,289.854,279.768,291.356,280.832,292.979L280.832,292.979z"/>
		</g>
	</g>
	<g>
		<g>
			<path fill="#353535" d="M282.525,291.168c1.35-0.418,2.7-0.445,4.102-0.446c1.935-0.001,1.935-3.001,0-3
				c-1.655,0.001-3.307,0.06-4.898,0.554C279.887,288.847,280.673,291.743,282.525,291.168L282.525,291.168z"/>
		</g>
	</g>
	<g>
		<g>
			<path fill="#353535" d="M282.181,326.121c0.957,2.716-0.48,6.297,1.386,8.662c1.198,1.518,3.306-0.621,2.121-2.121
				c-0.248-0.315-0.06-2.533-0.063-3.244c-0.009-1.374-0.091-2.79-0.551-4.095C284.435,323.512,281.536,324.292,282.181,326.121
				L282.181,326.121z"/>
		</g>
	</g>
	<g>
		<g>
			<path fill="#353535" d="M279.627,327.222c4.194-0.099,8.29-1.388,12.5-1c1.927,0.178,1.91-2.824,0-3
				c-4.215-0.389-8.304,0.901-12.5,1C277.695,324.268,277.691,327.268,279.627,327.222L279.627,327.222z"/>
		</g>
	</g>
</g>
</svg>
