<?xml version="1.0" encoding="utf-8"?>
<!-- Generator: Adobe Illustrator 16.0.0, SVG Export Plug-In . SVG Version: 6.00 Build 0)  -->
<!DOCTYPE svg PUBLIC "-//W3C//DTD SVG 1.1//EN" "http://www.w3.org/Graphics/SVG/1.1/DTD/svg11.dtd">
<svg version="1.1" id="Layer_1" xmlns="http://www.w3.org/2000/svg" xmlns:xlink="http://www.w3.org/1999/xlink" x="0px" y="0px"
	 width="38px" height="78px" viewBox="0 -20 38 78" enable-background="new 0 -20 38 78" xml:space="preserve">
<path d="M19-19.206C8.669-19.206,0.294-10.831,0.294-0.5C0.294,9.83,8.669,18.205,19,18.205c10.332,0,18.705-8.375,18.705-18.706
	C37.705-10.831,29.332-19.206,19-19.206z M28.764-5.51c0.01,0.192,0.014,0.41,0.014,0.652c0,1.346-0.194,2.695-0.59,4.045
	c-0.393,1.35-0.992,2.643-1.799,3.877c-0.807,1.233-1.77,2.328-2.885,3.28c-1.115,0.953-2.457,1.714-4.024,2.279
	c-1.566,0.565-3.245,0.851-5.037,0.851c-2.795,0-5.37-0.755-7.723-2.265c0.418,0.047,0.818,0.07,1.202,0.07
	c2.335,0,4.421-0.722,6.257-2.158c-1.088-0.021-2.063-0.354-2.926-1.006c-0.861-0.65-1.454-1.482-1.778-2.494
	c0.321,0.062,0.637,0.092,0.949,0.092c0.449,0,0.892-0.059,1.326-0.176c-1.162-0.231-2.481-0.812-3.247-1.737
	C7.738-1.122,7-2.19,7-3.4v-0.062c0,0.396,1.829,0.605,2.638,0.63C8.95-3.291,8.582-3.889,8.179-4.627
	C7.776-5.365,7.662-6.164,7.662-7.023c0-0.906,0.271-1.75,0.725-2.531c1.264,1.551,2.818,2.79,4.618,3.719
	c1.799,0.928,3.74,1.443,5.8,1.546c-0.088-0.366-0.127-0.749-0.127-1.146c0-1.391,0.495-2.578,1.48-3.562
	c0.984-0.983,2.17-1.476,3.561-1.476c1.455,0,2.688,0.53,3.684,1.59c1.139-0.226,2.205-0.634,3.197-1.224
	c-0.384,1.205-1.119,2.134-2.214,2.788c1.005-0.119,1.97-0.383,2.896-0.791l0,0C30.596-7.094,29.758-6.227,28.764-5.51z"/>
<path fill="#3665CE" d="M19,19.794c-10.331,0-18.706,8.375-18.706,18.706c0,10.33,8.375,18.705,18.706,18.705
	c10.332,0,18.705-8.375,18.705-18.706C37.705,28.169,29.332,19.794,19,19.794z M28.764,33.49c0.01,0.191,0.014,0.41,0.014,0.652
	c0,1.346-0.194,2.694-0.59,4.045c-0.393,1.35-0.992,2.643-1.799,3.877c-0.807,1.233-1.77,2.328-2.885,3.28
	c-1.115,0.953-2.457,1.714-4.024,2.279c-1.566,0.565-3.245,0.851-5.037,0.851c-2.795,0-5.37-0.755-7.723-2.265
	c0.418,0.047,0.818,0.07,1.202,0.07c2.335,0,4.421-0.722,6.257-2.158c-1.088-0.021-2.063-0.354-2.926-1.006
	c-0.861-0.65-1.454-1.482-1.778-2.494c0.321,0.062,0.637,0.092,0.949,0.092c0.449,0,0.892-0.059,1.326-0.176
	c-1.162-0.231-2.481-0.812-3.247-1.737C7.738,37.878,7,36.811,7,35.6v-0.062c0,0.396,1.829,0.604,2.638,0.63
	c-0.688-0.459-1.056-1.057-1.459-1.795c-0.403-0.738-0.517-1.537-0.517-2.396c0-0.906,0.271-1.75,0.725-2.531
	c1.264,1.552,2.818,2.791,4.618,3.72c1.799,0.928,3.74,1.442,5.8,1.546c-0.088-0.366-0.127-0.749-0.127-1.146
	c0-1.391,0.495-2.578,1.48-3.562c0.984-0.983,2.17-1.476,3.561-1.476c1.455,0,2.688,0.529,3.684,1.59
	c1.139-0.227,2.205-0.635,3.197-1.225c-0.384,1.205-1.119,2.135-2.214,2.789c1.005-0.119,1.97-0.384,2.896-0.791l0,0
	C30.596,31.906,29.758,32.773,28.764,33.49z"/>
<line fill="none" x1="19" y1="-0.5" x2="19" y2="38.5"/>
</svg>
